<svg xmlns="http://www.w3.org/2000/svg" xmlns:xlink="http://www.w3.org/1999/xlink" width="40" zoomAndPan="magnify" viewBox="0 0 30 30.000001" height="40" preserveAspectRatio="xMidYMid meet" version="1.0"><defs><clipPath id="id1"><path d="M 5.367188 9.261719 L 24.960938 9.261719 L 24.960938 19.421875 L 5.367188 19.421875 Z M 5.367188 9.261719 " clip-rule="nonzero"/></clipPath></defs><g clip-path="url(#id1)"><path fill="#000000" d="M 24.695312 19.175781 C 24.535156 19.328125 24.3125 19.421875 24.0625 19.421875 C 23.816406 19.421875 23.59375 19.328125 23.433594 19.175781 L 15.164062 11.304688 L 6.894531 19.175781 C 6.730469 19.328125 6.507812 19.421875 6.261719 19.421875 C 5.769531 19.421875 5.371094 19.042969 5.371094 18.574219 C 5.371094 18.339844 5.472656 18.128906 5.632812 17.976562 L 14.535156 9.507812 C 14.695312 9.355469 14.917969 9.257812 15.164062 9.257812 C 15.410156 9.257812 15.632812 9.355469 15.792969 9.507812 L 24.695312 17.976562 C 24.855469 18.128906 24.957031 18.339844 24.957031 18.574219 C 24.957031 18.808594 24.855469 19.023438 24.695312 19.175781 Z M 24.695312 19.175781 " fill-opacity="1" fill-rule="nonzero"/></g></svg>