<svg xmlns="http://www.w3.org/2000/svg" xmlns:xlink="http://www.w3.org/1999/xlink" width="90" zoomAndPan="magnify" viewBox="0 0 67.5 67.499996" height="90" preserveAspectRatio="xMidYMid meet" version="1.0"><defs><clipPath id="id1"><path d="M 46 7.914062 L 54 7.914062 L 54 15 L 46 15 Z M 46 7.914062 " clip-rule="nonzero"/></clipPath><clipPath id="id2"><path d="M 30 49 L 39 49 L 39 59.664062 L 30 59.664062 Z M 30 49 " clip-rule="nonzero"/></clipPath><clipPath id="id3"><path d="M 26 57 L 43 57 L 43 59.664062 L 26 59.664062 Z M 26 57 " clip-rule="nonzero"/></clipPath><clipPath id="id4"><path d="M 48 42 L 67.003906 42 L 67.003906 56 L 48 56 Z M 48 42 " clip-rule="nonzero"/></clipPath><clipPath id="id5"><path d="M 66 42 L 67.003906 42 L 67.003906 43 L 66 43 Z M 66 42 " clip-rule="nonzero"/></clipPath><clipPath id="id6"><path d="M 66 55 L 67.003906 55 L 67.003906 57 L 66 57 Z M 66 55 " clip-rule="nonzero"/></clipPath></defs><path fill="#4590b0" d="M 48.808594 25.539062 L 51.207031 23.136719 L 49.738281 21.667969 C 49.742188 21.660156 49.746094 21.652344 49.753906 21.644531 L 51.777344 21.644531 L 51.777344 18.253906 L 49.738281 18.253906 C 49.738281 18.234375 49.71875 18.21875 49.714844 18.203125 L 51.128906 16.792969 L 48.730469 14.386719 L 47.316406 15.804688 C 47.292969 15.789062 47.265625 15.777344 47.234375 15.765625 L 47.234375 13.8125 L 43.847656 13.8125 L 43.847656 15.773438 C 43.808594 15.785156 43.777344 15.804688 43.742188 15.820312 L 42.390625 14.464844 L 39.992188 16.867188 L 41.378906 18.253906 C 41.367188 18.292969 41.355469 18.328125 41.339844 18.359375 L 39.421875 18.359375 L 39.421875 21.765625 L 41.417969 21.765625 C 41.429688 21.789062 41.441406 21.816406 41.449219 21.84375 L 40.074219 23.222656 L 42.46875 25.625 L 43.914062 24.179688 L 43.960938 24.195312 L 43.960938 26.199219 L 47.355469 26.199219 L 47.355469 24.113281 C 47.363281 24.113281 47.371094 24.113281 47.375 24.113281 Z M 43.492188 22.027344 C 43.222656 21.753906 43.011719 21.4375 42.863281 21.078125 C 42.714844 20.722656 42.640625 20.347656 42.640625 19.960938 C 42.640625 19.574219 42.714844 19.203125 42.863281 18.84375 C 43.011719 18.488281 43.222656 18.171875 43.496094 17.898438 C 43.769531 17.625 44.085938 17.414062 44.441406 17.265625 C 44.800781 17.117188 45.171875 17.042969 45.558594 17.042969 C 45.945312 17.042969 46.316406 17.117188 46.671875 17.265625 C 47.03125 17.414062 47.347656 17.625 47.621094 17.898438 C 47.894531 18.171875 48.105469 18.488281 48.25 18.84375 C 48.398438 19.203125 48.472656 19.574219 48.472656 19.960938 C 48.472656 20.347656 48.402344 20.722656 48.253906 21.078125 C 48.105469 21.4375 47.894531 21.753906 47.621094 22.027344 C 47.347656 22.300781 47.03125 22.511719 46.675781 22.660156 C 46.316406 22.808594 45.945312 22.882812 45.558594 22.882812 C 45.171875 22.882812 44.796875 22.808594 44.441406 22.660156 C 44.082031 22.511719 43.765625 22.300781 43.492188 22.027344 Z M 43.492188 22.027344 " fill-opacity="1" fill-rule="nonzero"/><g clip-path="url(#id1)"><path fill="#4590b0" d="M 49.191406 14.535156 L 51.007812 14.535156 L 51.007812 13.425781 L 51.019531 13.425781 L 51.78125 14.1875 L 53.0625 12.902344 L 52.292969 12.140625 C 52.296875 12.132812 52.300781 12.121094 52.300781 12.113281 L 53.367188 12.113281 L 53.367188 10.289062 L 52.300781 10.289062 C 52.296875 10.273438 52.292969 10.257812 52.285156 10.246094 L 53.019531 9.507812 L 51.738281 8.222656 L 50.996094 8.964844 C 50.980469 8.957031 50.960938 8.949219 50.941406 8.945312 L 50.941406 7.914062 L 49.125 7.914062 L 49.125 8.964844 C 49.109375 8.964844 49.09375 8.984375 49.074219 8.992188 L 48.347656 8.265625 L 47.070312 9.550781 L 47.832031 10.3125 C 47.828125 10.328125 47.824219 10.339844 47.816406 10.355469 L 46.769531 10.355469 L 46.769531 12.171875 L 47.859375 12.171875 C 47.863281 12.179688 47.867188 12.1875 47.871094 12.195312 L 47.109375 12.957031 L 48.390625 14.242188 L 49.179688 13.453125 L 49.191406 13.453125 Z M 48.511719 11.195312 C 48.511719 10.988281 48.550781 10.789062 48.628906 10.597656 C 48.710938 10.40625 48.820312 10.238281 48.96875 10.089844 C 49.113281 9.945312 49.28125 9.832031 49.472656 9.753906 C 49.664062 9.675781 49.863281 9.632812 50.070312 9.632812 C 50.277344 9.632812 50.476562 9.675781 50.667969 9.753906 C 50.859375 9.832031 51.027344 9.945312 51.171875 10.09375 C 51.320312 10.238281 51.433594 10.40625 51.511719 10.597656 C 51.589844 10.789062 51.628906 10.988281 51.628906 11.195312 C 51.628906 11.402344 51.589844 11.601562 51.511719 11.792969 C 51.433594 11.984375 51.320312 12.15625 51.175781 12.300781 C 51.027344 12.449219 50.859375 12.558594 50.667969 12.640625 C 50.476562 12.71875 50.277344 12.757812 50.070312 12.757812 C 49.863281 12.757812 49.664062 12.71875 49.472656 12.640625 C 49.28125 12.5625 49.113281 12.449219 48.96875 12.300781 C 48.820312 12.15625 48.707031 11.984375 48.628906 11.792969 C 48.550781 11.601562 48.511719 11.402344 48.511719 11.195312 Z M 48.511719 11.195312 " fill-opacity="1" fill-rule="nonzero"/></g><g clip-path="url(#id2)"><path fill="#54c4d0" d="M 30.644531 49.957031 L 38.972656 49.957031 L 38.972656 59.320312 L 30.644531 59.320312 Z M 30.644531 49.957031 " fill-opacity="1" fill-rule="nonzero"/></g><path fill="#45a6af" d="M 30.644531 49.957031 L 38.972656 49.957031 L 38.972656 53.210938 L 30.644531 53.210938 Z M 30.644531 49.957031 " fill-opacity="1" fill-rule="nonzero"/><g clip-path="url(#id3)"><path fill="#45a6af" d="M 28.574219 57.050781 L 41.039062 57.050781 C 41.246094 57.050781 41.449219 57.09375 41.640625 57.171875 C 41.835938 57.253906 42.003906 57.367188 42.152344 57.515625 C 42.300781 57.664062 42.414062 57.832031 42.496094 58.027344 C 42.574219 58.21875 42.613281 58.421875 42.613281 58.632812 L 42.613281 59.667969 L 26.996094 59.667969 L 26.996094 58.632812 C 26.996094 58.421875 27.035156 58.21875 27.117188 58.027344 C 27.195312 57.832031 27.3125 57.660156 27.460938 57.515625 C 27.605469 57.367188 27.777344 57.25 27.972656 57.171875 C 28.164062 57.089844 28.367188 57.050781 28.574219 57.050781 Z M 28.574219 57.050781 " fill-opacity="1" fill-rule="nonzero"/></g><path fill="#45a6b0" d="M 13.222656 20.816406 L 56.390625 20.816406 C 56.59375 20.816406 56.789062 20.855469 56.976562 20.929688 C 57.160156 21.007812 57.328125 21.121094 57.46875 21.261719 C 57.613281 21.40625 57.722656 21.570312 57.800781 21.757812 C 57.875 21.945312 57.914062 22.140625 57.914062 22.339844 L 57.914062 49.507812 C 57.914062 49.710938 57.875 49.90625 57.800781 50.09375 C 57.722656 50.28125 57.613281 50.445312 57.46875 50.585938 C 57.328125 50.730469 57.160156 50.839844 56.976562 50.917969 C 56.789062 50.996094 56.59375 51.035156 56.390625 51.035156 L 13.222656 51.035156 C 13.023438 51.035156 12.828125 50.996094 12.640625 50.917969 C 12.453125 50.839844 12.289062 50.730469 12.144531 50.585938 C 12.003906 50.445312 11.894531 50.28125 11.816406 50.09375 C 11.738281 49.90625 11.699219 49.710938 11.699219 49.507812 L 11.699219 22.339844 C 11.699219 22.140625 11.738281 21.945312 11.816406 21.757812 C 11.894531 21.570312 12.003906 21.40625 12.144531 21.261719 C 12.289062 21.121094 12.453125 21.007812 12.640625 20.929688 C 12.828125 20.855469 13.023438 20.816406 13.222656 20.816406 Z M 13.222656 20.816406 " fill-opacity="1" fill-rule="nonzero"/><path fill="#ffffff" d="M 56.691406 22.65625 L 56.691406 49.195312 C 56.691406 49.363281 56.632812 49.507812 56.511719 49.628906 C 56.390625 49.75 56.246094 49.808594 56.078125 49.808594 L 13.539062 49.808594 C 13.367188 49.808594 13.222656 49.75 13.101562 49.628906 C 12.984375 49.507812 12.921875 49.363281 12.921875 49.195312 L 12.921875 22.65625 C 12.921875 22.484375 12.984375 22.339844 13.101562 22.222656 C 13.222656 22.101562 13.367188 22.039062 13.539062 22.039062 L 56.078125 22.039062 C 56.246094 22.039062 56.390625 22.101562 56.511719 22.222656 C 56.632812 22.339844 56.691406 22.484375 56.691406 22.65625 Z M 56.691406 22.65625 " fill-opacity="1" fill-rule="nonzero"/><path fill="#45a6af" d="M 2.097656 16.335938 L 22.808594 16.335938 C 22.921875 16.335938 23.023438 16.378906 23.105469 16.460938 C 23.183594 16.542969 23.226562 16.640625 23.226562 16.757812 L 23.226562 29.597656 C 23.226562 29.714844 23.183594 29.8125 23.105469 29.894531 C 23.023438 29.976562 22.921875 30.015625 22.808594 30.015625 L 2.097656 30.015625 C 1.984375 30.015625 1.882812 29.976562 1.800781 29.894531 C 1.722656 29.8125 1.679688 29.714844 1.679688 29.597656 L 1.679688 16.757812 C 1.679688 16.640625 1.722656 16.542969 1.800781 16.460938 C 1.882812 16.378906 1.984375 16.335938 2.097656 16.335938 Z M 2.097656 16.335938 " fill-opacity="1" fill-rule="nonzero"/><path fill="#ffffff" d="M 22.929688 17.78125 L 22.929688 29.339844 C 22.929688 29.429688 22.898438 29.507812 22.832031 29.574219 C 22.769531 29.636719 22.691406 29.667969 22.597656 29.667969 L 2.308594 29.667969 C 2.214844 29.667969 2.136719 29.636719 2.074219 29.574219 C 2.007812 29.507812 1.976562 29.429688 1.976562 29.339844 L 1.976562 17.78125 C 1.976562 17.691406 2.007812 17.613281 2.074219 17.546875 C 2.136719 17.484375 2.214844 17.449219 2.308594 17.449219 L 22.597656 17.449219 C 22.691406 17.449219 22.769531 17.484375 22.832031 17.546875 C 22.898438 17.613281 22.929688 17.691406 22.929688 17.78125 Z M 22.929688 17.78125 " fill-opacity="1" fill-rule="nonzero"/><path fill="#ffffff" d="M 22.789062 16.894531 C 22.789062 16.96875 22.761719 17.035156 22.707031 17.085938 C 22.65625 17.140625 22.589844 17.167969 22.515625 17.167969 C 22.441406 17.167969 22.378906 17.140625 22.324219 17.085938 C 22.269531 17.035156 22.246094 16.96875 22.246094 16.894531 C 22.246094 16.820312 22.269531 16.753906 22.324219 16.703125 C 22.378906 16.648438 22.441406 16.621094 22.515625 16.621094 C 22.589844 16.621094 22.65625 16.648438 22.707031 16.703125 C 22.761719 16.753906 22.789062 16.820312 22.789062 16.894531 Z M 22.789062 16.894531 " fill-opacity="1" fill-rule="nonzero"/><path fill="#ffffff" d="M 21.886719 16.894531 C 21.886719 16.96875 21.859375 17.035156 21.808594 17.085938 C 21.753906 17.140625 21.691406 17.167969 21.613281 17.167969 C 21.539062 17.167969 21.476562 17.140625 21.421875 17.085938 C 21.371094 17.035156 21.34375 16.96875 21.34375 16.894531 C 21.34375 16.820312 21.371094 16.753906 21.421875 16.703125 C 21.476562 16.648438 21.539062 16.621094 21.613281 16.621094 C 21.691406 16.621094 21.753906 16.648438 21.808594 16.703125 C 21.859375 16.753906 21.886719 16.820312 21.886719 16.894531 Z M 21.886719 16.894531 " fill-opacity="1" fill-rule="nonzero"/><path fill="#ffffff" d="M 20.988281 16.894531 C 20.988281 16.96875 20.960938 17.035156 20.90625 17.085938 C 20.855469 17.140625 20.789062 17.167969 20.714844 17.167969 C 20.640625 17.167969 20.574219 17.140625 20.523438 17.085938 C 20.46875 17.035156 20.441406 16.96875 20.441406 16.894531 C 20.441406 16.820312 20.46875 16.753906 20.523438 16.703125 C 20.574219 16.648438 20.640625 16.621094 20.714844 16.621094 C 20.789062 16.621094 20.855469 16.648438 20.90625 16.703125 C 20.960938 16.753906 20.988281 16.820312 20.988281 16.894531 Z M 20.988281 16.894531 " fill-opacity="1" fill-rule="nonzero"/><path fill="#4590af" d="M 4.933594 19.636719 C 4.933594 19.785156 4.902344 19.925781 4.847656 20.058594 C 4.789062 20.195312 4.710938 20.3125 4.605469 20.417969 C 4.5 20.519531 4.382812 20.597656 4.246094 20.652344 C 4.109375 20.707031 3.96875 20.734375 3.824219 20.734375 C 3.679688 20.734375 3.539062 20.707031 3.402344 20.648438 C 3.269531 20.59375 3.148438 20.511719 3.046875 20.410156 C 2.941406 20.304688 2.863281 20.183594 2.808594 20.050781 C 2.753906 19.914062 2.726562 19.773438 2.726562 19.625 C 2.726562 19.480469 2.753906 19.339844 2.8125 19.203125 C 2.867188 19.070312 2.949219 18.949219 3.050781 18.847656 C 3.15625 18.742188 3.273438 18.664062 3.410156 18.609375 C 3.542969 18.550781 3.683594 18.523438 3.832031 18.523438 C 3.976562 18.523438 4.121094 18.554688 4.253906 18.609375 C 4.390625 18.667969 4.511719 18.746094 4.613281 18.851562 C 4.714844 18.957031 4.796875 19.078125 4.851562 19.214844 C 4.90625 19.347656 4.933594 19.492188 4.933594 19.636719 Z M 4.933594 19.636719 " fill-opacity="1" fill-rule="nonzero"/><path fill="#d5d4eb" d="M 5.4375 18.539062 L 21.890625 18.539062 L 21.890625 19.0625 L 5.4375 19.0625 Z M 5.4375 18.539062 " fill-opacity="1" fill-rule="nonzero"/><path fill="#d5d4eb" d="M 5.4375 19.375 L 16.632812 19.375 L 16.632812 19.898438 L 5.4375 19.898438 Z M 5.4375 19.375 " fill-opacity="1" fill-rule="nonzero"/><path fill="#d5d4eb" d="M 5.4375 20.261719 L 11.261719 20.261719 L 11.261719 20.785156 L 5.4375 20.785156 Z M 5.4375 20.261719 " fill-opacity="1" fill-rule="nonzero"/><path fill="#4590af" d="M 4.933594 23.15625 C 4.933594 23.300781 4.90625 23.441406 4.851562 23.578125 C 4.792969 23.714844 4.714844 23.832031 4.609375 23.9375 C 4.507812 24.042969 4.386719 24.121094 4.253906 24.175781 C 4.117188 24.234375 3.976562 24.261719 3.832031 24.261719 C 3.683594 24.261719 3.542969 24.234375 3.40625 24.179688 C 3.273438 24.121094 3.152344 24.042969 3.050781 23.9375 C 2.945312 23.835938 2.867188 23.714844 2.808594 23.578125 C 2.753906 23.445312 2.726562 23.304688 2.726562 23.15625 C 2.726562 23.007812 2.753906 22.867188 2.8125 22.734375 C 2.867188 22.597656 2.945312 22.476562 3.050781 22.375 C 3.152344 22.269531 3.273438 22.191406 3.410156 22.136719 C 3.542969 22.078125 3.683594 22.050781 3.832031 22.050781 C 3.976562 22.050781 4.117188 22.078125 4.253906 22.136719 C 4.386719 22.191406 4.507812 22.273438 4.609375 22.375 C 4.714844 22.476562 4.792969 22.597656 4.847656 22.734375 C 4.90625 22.867188 4.933594 23.007812 4.933594 23.15625 Z M 4.933594 23.15625 " fill-opacity="1" fill-rule="nonzero"/><path fill="#d5d4eb" d="M 5.4375 22.058594 L 21.890625 22.058594 L 21.890625 22.582031 L 5.4375 22.582031 Z M 5.4375 22.058594 " fill-opacity="1" fill-rule="nonzero"/><path fill="#d5d4eb" d="M 5.4375 22.894531 L 16.632812 22.894531 L 16.632812 23.417969 L 5.4375 23.417969 Z M 5.4375 22.894531 " fill-opacity="1" fill-rule="nonzero"/><path fill="#d5d4eb" d="M 5.4375 23.78125 L 11.261719 23.78125 L 11.261719 24.300781 L 5.4375 24.300781 Z M 5.4375 23.78125 " fill-opacity="1" fill-rule="nonzero"/><path fill="#4590af" d="M 4.933594 26.675781 C 4.933594 26.820312 4.90625 26.960938 4.851562 27.097656 C 4.796875 27.234375 4.714844 27.355469 4.613281 27.457031 C 4.511719 27.5625 4.390625 27.644531 4.253906 27.699219 C 4.121094 27.757812 3.980469 27.785156 3.832031 27.785156 C 3.6875 27.785156 3.546875 27.757812 3.410156 27.703125 C 3.273438 27.644531 3.15625 27.566406 3.050781 27.460938 C 2.945312 27.359375 2.867188 27.238281 2.8125 27.105469 C 2.753906 26.96875 2.726562 26.828125 2.726562 26.679688 C 2.726562 26.535156 2.753906 26.394531 2.808594 26.257812 C 2.867188 26.121094 2.945312 26 3.050781 25.898438 C 3.152344 25.792969 3.273438 25.714844 3.410156 25.660156 C 3.542969 25.601562 3.683594 25.574219 3.832031 25.574219 C 3.976562 25.574219 4.117188 25.601562 4.253906 25.660156 C 4.386719 25.714844 4.503906 25.792969 4.609375 25.898438 C 4.710938 26 4.792969 26.117188 4.847656 26.253906 C 4.902344 26.386719 4.933594 26.527344 4.933594 26.675781 Z M 4.933594 26.675781 " fill-opacity="1" fill-rule="nonzero"/><path fill="#d5d4eb" d="M 5.4375 25.578125 L 21.890625 25.578125 L 21.890625 26.097656 L 5.4375 26.097656 Z M 5.4375 25.578125 " fill-opacity="1" fill-rule="nonzero"/><path fill="#d5d4eb" d="M 5.4375 26.414062 L 16.632812 26.414062 L 16.632812 26.933594 L 5.4375 26.933594 Z M 5.4375 26.414062 " fill-opacity="1" fill-rule="nonzero"/><path fill="#d5d4eb" d="M 5.4375 27.300781 L 11.261719 27.300781 L 11.261719 27.820312 L 5.4375 27.820312 Z M 5.4375 27.300781 " fill-opacity="1" fill-rule="nonzero"/><path stroke-linecap="butt" transform="matrix(0.190235, 0, 0, 0.190538, 0.0307558, 7.915906)" fill="none" stroke-linejoin="miter" d="M 2.446115 38.040575 L 127.291378 38.040575 L 127.291378 122.83359 L 2.446115 122.83359 Z M 2.446115 38.040575 " stroke="#4590b1" stroke-width="1" stroke-opacity="1" stroke-miterlimit="10"/><path fill="#45a6af" d="M 0.03125 14.695312 L 0.960938 14.695312 L 0.960938 15.628906 L 0.03125 15.628906 Z M 0.03125 14.695312 " fill-opacity="1" fill-rule="nonzero"/><path fill="#45a6af" d="M 0.03125 30.855469 L 0.960938 30.855469 L 0.960938 31.785156 L 0.03125 31.785156 Z M 0.03125 30.855469 " fill-opacity="1" fill-rule="nonzero"/><path fill="#45a6af" d="M 23.785156 14.695312 L 24.714844 14.695312 L 24.714844 15.628906 L 23.785156 15.628906 Z M 23.785156 14.695312 " fill-opacity="1" fill-rule="nonzero"/><path fill="#38356e" d="M 23.785156 30.855469 L 24.714844 30.855469 L 24.714844 31.785156 L 23.785156 31.785156 Z M 23.785156 30.855469 " fill-opacity="1" fill-rule="nonzero"/><path fill="#45a6af" d="M 50.023438 43.222656 L 65.804688 43.222656 C 65.921875 43.222656 66.019531 43.265625 66.101562 43.347656 C 66.183594 43.429688 66.222656 43.527344 66.222656 43.644531 L 66.222656 54.363281 C 66.222656 54.480469 66.183594 54.578125 66.101562 54.660156 C 66.019531 54.742188 65.921875 54.785156 65.804688 54.785156 L 50.023438 54.785156 C 49.910156 54.785156 49.808594 54.742188 49.730469 54.660156 C 49.648438 54.578125 49.605469 54.480469 49.605469 54.363281 L 49.605469 43.644531 C 49.605469 43.527344 49.648438 43.429688 49.730469 43.347656 C 49.808594 43.265625 49.910156 43.222656 50.023438 43.222656 Z M 50.023438 43.222656 " fill-opacity="1" fill-rule="nonzero"/><path fill="#ffffff" d="M 65.972656 44.429688 L 65.972656 54.222656 C 65.972656 54.296875 65.949219 54.359375 65.894531 54.414062 C 65.84375 54.464844 65.78125 54.492188 65.707031 54.492188 L 50.125 54.492188 C 50.050781 54.492188 49.988281 54.464844 49.9375 54.414062 C 49.886719 54.359375 49.859375 54.296875 49.859375 54.222656 L 49.859375 44.429688 C 49.859375 44.355469 49.886719 44.292969 49.9375 44.242188 C 49.988281 44.191406 50.050781 44.164062 50.125 44.164062 L 65.707031 44.164062 C 65.78125 44.164062 65.84375 44.191406 65.894531 44.242188 C 65.949219 44.292969 65.972656 44.355469 65.972656 44.429688 Z M 65.972656 44.429688 " fill-opacity="1" fill-rule="nonzero"/><path fill="#ffffff" d="M 65.855469 43.695312 C 65.855469 43.847656 65.78125 43.925781 65.625 43.925781 C 65.472656 43.925781 65.394531 43.847656 65.394531 43.695312 C 65.394531 43.542969 65.472656 43.464844 65.625 43.464844 C 65.777344 43.464844 65.855469 43.542969 65.855469 43.695312 Z M 65.855469 43.695312 " fill-opacity="1" fill-rule="nonzero"/><path fill="#ffffff" d="M 65.09375 43.695312 C 65.097656 43.851562 65.019531 43.929688 64.863281 43.929688 C 64.707031 43.929688 64.628906 43.851562 64.632812 43.695312 C 64.632812 43.539062 64.710938 43.464844 64.863281 43.464844 C 65.015625 43.464844 65.09375 43.542969 65.09375 43.695312 Z M 65.09375 43.695312 " fill-opacity="1" fill-rule="nonzero"/><path fill="#ffffff" d="M 64.332031 43.695312 C 64.332031 43.847656 64.253906 43.925781 64.101562 43.925781 C 63.949219 43.925781 63.871094 43.847656 63.871094 43.695312 C 63.871094 43.542969 63.949219 43.464844 64.101562 43.464844 C 64.253906 43.464844 64.332031 43.542969 64.332031 43.695312 Z M 64.332031 43.695312 " fill-opacity="1" fill-rule="nonzero"/><path fill="#4590b0" d="M 58.507812 47.007812 C 58.8125 47.085938 59.09375 47.21875 59.347656 47.410156 C 59.601562 47.597656 59.8125 47.832031 59.972656 48.105469 C 60.136719 48.378906 60.238281 48.671875 60.285156 48.984375 C 60.332031 49.300781 60.316406 49.613281 60.238281 49.917969 C 60.160156 50.226562 60.023438 50.507812 59.835938 50.765625 C 59.644531 51.019531 59.414062 51.226562 59.140625 51.390625 C 58.867188 51.550781 58.574219 51.65625 58.261719 51.703125 C 57.945312 51.746094 57.636719 51.730469 57.328125 51.652344 C 57.019531 51.574219 56.738281 51.441406 56.484375 51.25 C 56.230469 51.0625 56.023438 50.828125 55.859375 50.554688 C 55.699219 50.28125 55.59375 49.988281 55.550781 49.675781 C 55.503906 49.359375 55.519531 49.046875 55.597656 48.742188 C 55.675781 48.433594 55.808594 48.152344 56 47.894531 C 56.1875 47.640625 56.421875 47.433594 56.691406 47.269531 C 56.964844 47.109375 57.257812 47.003906 57.574219 46.957031 C 57.886719 46.914062 58.199219 46.929688 58.507812 47.007812 Z M 58.507812 47.007812 " fill-opacity="1" fill-rule="nonzero"/><path fill="#ffffff" d="M 59.316406 49.328125 L 57.097656 50.609375 L 57.097656 48.046875 Z M 59.316406 49.328125 " fill-opacity="1" fill-rule="nonzero"/><path fill="#d5d4eb" d="M 49.855469 53.410156 L 65.972656 53.410156 L 65.972656 53.726562 L 49.855469 53.726562 Z M 49.855469 53.410156 " fill-opacity="1" fill-rule="nonzero"/><path fill="#4590b0" d="M 49.855469 53.410156 L 53.488281 53.410156 L 53.488281 53.726562 L 49.855469 53.726562 Z M 49.855469 53.410156 " fill-opacity="1" fill-rule="nonzero"/><path fill="#4590b0" d="M 53.730469 53.570312 C 53.730469 53.730469 53.652344 53.8125 53.488281 53.8125 C 53.328125 53.8125 53.246094 53.730469 53.246094 53.570312 C 53.246094 53.40625 53.328125 53.324219 53.488281 53.324219 C 53.652344 53.324219 53.730469 53.40625 53.730469 53.570312 Z M 53.730469 53.570312 " fill-opacity="1" fill-rule="nonzero"/><g clip-path="url(#id4)"><path stroke-linecap="butt" transform="matrix(0.190235, 0, 0, 0.190538, 0.0307558, 7.915906)" fill="none" stroke-linejoin="miter" d="M 255.935386 181.282547 L 352.628864 181.282547 L 352.628864 251.109677 L 255.935386 251.109677 Z M 255.935386 181.282547 " stroke="#4590b1" stroke-width="1" stroke-opacity="1" stroke-miterlimit="10"/></g><path fill="#38356e" d="M 48.359375 42.097656 L 49.078125 42.097656 L 49.078125 42.820312 L 48.359375 42.820312 Z M 48.359375 42.097656 " fill-opacity="1" fill-rule="nonzero"/><path fill="#45a6af" d="M 48.359375 55.398438 L 49.078125 55.398438 L 49.078125 56.121094 L 48.359375 56.121094 Z M 48.359375 55.398438 " fill-opacity="1" fill-rule="nonzero"/><g clip-path="url(#id5)"><path fill="#45a6af" d="M 66.753906 42.097656 L 67.476562 42.097656 L 67.476562 42.820312 L 66.753906 42.820312 Z M 66.753906 42.097656 " fill-opacity="1" fill-rule="nonzero"/></g><g clip-path="url(#id6)"><path fill="#45a6af" d="M 66.753906 55.398438 L 67.476562 55.398438 L 67.476562 56.121094 L 66.753906 56.121094 Z M 66.753906 55.398438 " fill-opacity="1" fill-rule="nonzero"/></g><path fill="#45a6af" d="M 63.496094 25.078125 L 55.628906 25.078125 C 55.550781 25.078125 55.484375 25.054688 55.429688 25 C 55.375 24.945312 55.347656 24.878906 55.347656 24.800781 L 55.347656 19.171875 C 55.351562 19.09375 55.378906 19.027344 55.433594 18.972656 C 55.488281 18.917969 55.550781 18.894531 55.628906 18.894531 L 58.828125 18.894531 C 58.902344 18.894531 58.964844 18.921875 59.015625 18.976562 L 59.535156 19.496094 C 59.589844 19.546875 59.652344 19.574219 59.726562 19.578125 L 63.480469 19.578125 C 63.558594 19.578125 63.625 19.605469 63.679688 19.660156 C 63.734375 19.710938 63.757812 19.777344 63.757812 19.855469 L 63.757812 24.808594 C 63.753906 24.980469 63.667969 25.070312 63.496094 25.078125 Z M 63.496094 25.078125 " fill-opacity="1" fill-rule="nonzero"/><path fill="#d5d4eb" d="M 62.78125 15.59375 L 62.78125 22.675781 L 56.101562 22.675781 L 56.101562 14.535156 L 61.726562 14.535156 Z M 62.78125 15.59375 " fill-opacity="1" fill-rule="nonzero"/><path fill="#cbcae0" d="M 61.726562 15.59375 L 61.726562 14.535156 L 62.78125 15.59375 Z M 61.726562 15.59375 " fill-opacity="1" fill-rule="nonzero"/><path fill="#e7e6ff" d="M 63.195312 15.960938 L 63.195312 23.046875 L 56.515625 23.046875 L 56.515625 14.90625 L 62.140625 14.90625 Z M 63.195312 15.960938 " fill-opacity="1" fill-rule="nonzero"/><path fill="#54c4d0" d="M 63.792969 25.078125 L 55.925781 25.078125 C 55.847656 25.078125 55.78125 25.050781 55.726562 25 C 55.671875 24.945312 55.644531 24.878906 55.644531 24.800781 L 55.644531 19.972656 C 55.644531 19.894531 55.671875 19.828125 55.726562 19.773438 C 55.78125 19.71875 55.847656 19.691406 55.925781 19.691406 L 59.121094 19.691406 C 59.195312 19.695312 59.257812 19.722656 59.3125 19.773438 L 59.832031 20.296875 C 59.882812 20.347656 59.945312 20.375 60.023438 20.378906 L 63.777344 20.378906 C 63.855469 20.378906 63.921875 20.402344 63.976562 20.457031 C 64.027344 20.511719 64.054688 20.578125 64.054688 20.65625 L 64.054688 24.800781 C 64.054688 24.976562 63.96875 25.070312 63.792969 25.078125 Z M 63.792969 25.078125 " fill-opacity="1" fill-rule="nonzero"/><path fill="#cbcae0" d="M 62.140625 15.960938 L 62.140625 14.90625 L 63.195312 15.960938 Z M 62.140625 15.960938 " fill-opacity="1" fill-rule="nonzero"/><path fill="#cbcae0" d="M 56.800781 15.371094 L 61.859375 15.371094 L 61.859375 15.644531 L 56.800781 15.644531 Z M 56.800781 15.371094 " fill-opacity="1" fill-rule="nonzero"/><path fill="#cbcae0" d="M 56.820312 16.40625 L 62.894531 16.40625 L 62.894531 16.582031 L 56.820312 16.582031 Z M 56.820312 16.40625 " fill-opacity="1" fill-rule="nonzero"/><path fill="#cbcae0" d="M 56.820312 16.898438 L 62.894531 16.898438 L 62.894531 17.070312 L 56.820312 17.070312 Z M 56.820312 16.898438 " fill-opacity="1" fill-rule="nonzero"/><path fill="#cbcae0" d="M 56.820312 17.390625 L 61.8125 17.390625 L 61.8125 17.5625 L 56.820312 17.5625 Z M 56.820312 17.390625 " fill-opacity="1" fill-rule="nonzero"/><path fill="#cbcae0" d="M 56.820312 17.882812 L 61.8125 17.882812 L 61.8125 18.054688 L 56.820312 18.054688 Z M 56.820312 17.882812 " fill-opacity="1" fill-rule="nonzero"/><path fill="#cbcae0" d="M 56.820312 18.371094 L 60.195312 18.371094 L 60.195312 18.546875 L 56.820312 18.546875 Z M 56.820312 18.371094 " fill-opacity="1" fill-rule="nonzero"/><path fill="#cbcae0" d="M 56.820312 18.863281 L 60.195312 18.863281 L 60.195312 19.039062 L 56.820312 19.039062 Z M 56.820312 18.863281 " fill-opacity="1" fill-rule="nonzero"/><path fill="#4590b0" d="M 59.207031 41.1875 C 59.394531 40.839844 59.535156 40.480469 59.628906 40.097656 L 59.628906 37.777344 C 59.628906 37.644531 59.675781 37.53125 59.769531 37.4375 C 59.863281 37.34375 59.976562 37.296875 60.109375 37.296875 L 66.199219 37.296875 C 66.332031 37.296875 66.445312 37.34375 66.539062 37.4375 C 66.632812 37.53125 66.679688 37.644531 66.679688 37.777344 L 66.679688 40.246094 C 66.679688 40.378906 66.632812 40.492188 66.539062 40.585938 C 66.445312 40.683594 66.332031 40.730469 66.199219 40.730469 L 60.433594 40.730469 C 60.136719 41.058594 59.773438 41.273438 59.34375 41.371094 C 59.289062 41.382812 59.246094 41.367188 59.214844 41.324219 C 59.179688 41.277344 59.179688 41.234375 59.207031 41.1875 Z M 59.207031 41.1875 " fill-opacity="1" fill-rule="nonzero"/><path fill="#ffffff" d="M 64.394531 38.125 C 64.527344 38.0625 64.667969 38.054688 64.808594 38.097656 C 64.949219 38.144531 65.058594 38.230469 65.132812 38.359375 C 65.203125 38.226562 65.308594 38.140625 65.453125 38.09375 C 65.59375 38.050781 65.734375 38.058594 65.867188 38.125 C 66.144531 38.285156 66.269531 38.527344 66.234375 38.847656 C 66.199219 39.144531 66.066406 39.386719 65.835938 39.582031 C 65.625 39.761719 65.390625 39.898438 65.132812 40 C 64.871094 39.898438 64.636719 39.761719 64.425781 39.582031 C 64.195312 39.386719 64.0625 39.144531 64.027344 38.847656 C 63.992188 38.527344 64.117188 38.285156 64.394531 38.125 Z M 64.394531 38.125 " fill-opacity="1" fill-rule="nonzero"/><path fill="#ffffff" d="M 60.882812 38.339844 L 60.882812 39.757812 L 60.480469 39.757812 L 60.480469 38.652344 L 60.21875 38.652344 L 60.21875 38.339844 Z M 60.882812 38.339844 " fill-opacity="1" fill-rule="nonzero"/><path fill="#ffffff" d="M 61.394531 39.691406 C 61.296875 39.628906 61.222656 39.542969 61.175781 39.4375 C 61.0625 39.171875 61.0625 38.90625 61.175781 38.644531 C 61.222656 38.535156 61.296875 38.453125 61.394531 38.390625 C 61.496094 38.328125 61.601562 38.300781 61.71875 38.304688 C 61.976562 38.296875 62.15625 38.410156 62.261719 38.644531 C 62.375 38.90625 62.375 39.171875 62.261719 39.4375 C 62.183594 39.597656 62.054688 39.703125 61.882812 39.753906 C 61.710938 39.804688 61.550781 39.78125 61.394531 39.691406 Z M 61.878906 39.351562 C 61.960938 39.144531 61.960938 38.9375 61.878906 38.730469 C 61.84375 38.664062 61.792969 38.632812 61.71875 38.628906 C 61.644531 38.632812 61.589844 38.664062 61.554688 38.730469 C 61.472656 38.9375 61.472656 39.144531 61.554688 39.351562 C 61.589844 39.414062 61.644531 39.449219 61.71875 39.449219 C 61.792969 39.449219 61.84375 39.414062 61.878906 39.351562 Z M 61.878906 39.351562 " fill-opacity="1" fill-rule="nonzero"/><path fill="#ffffff" d="M 62.78125 39.691406 C 62.679688 39.628906 62.605469 39.542969 62.558594 39.4375 C 62.449219 39.171875 62.449219 38.90625 62.558594 38.644531 C 62.605469 38.535156 62.679688 38.453125 62.78125 38.390625 C 62.878906 38.328125 62.988281 38.300781 63.101562 38.304688 C 63.21875 38.300781 63.328125 38.328125 63.425781 38.390625 C 63.523438 38.453125 63.597656 38.535156 63.648438 38.644531 C 63.757812 38.90625 63.757812 39.171875 63.648438 39.4375 C 63.597656 39.542969 63.523438 39.628906 63.425781 39.691406 C 63.328125 39.75 63.21875 39.78125 63.101562 39.777344 C 62.988281 39.78125 62.878906 39.75 62.78125 39.691406 Z M 63.265625 39.351562 C 63.347656 39.144531 63.347656 38.9375 63.265625 38.730469 C 63.230469 38.664062 63.175781 38.632812 63.101562 38.628906 C 63.027344 38.628906 62.976562 38.664062 62.941406 38.730469 C 62.855469 38.9375 62.855469 39.144531 62.941406 39.351562 C 62.976562 39.417969 63.027344 39.449219 63.101562 39.449219 C 63.175781 39.449219 63.230469 39.414062 63.265625 39.351562 Z M 63.265625 39.351562 " fill-opacity="1" fill-rule="nonzero"/><path fill="#45a6af" d="M 15.335938 24.027344 L 54.277344 24.027344 C 54.515625 24.027344 54.722656 24.113281 54.890625 24.28125 C 55.0625 24.453125 55.144531 24.65625 55.144531 24.898438 L 55.144531 46.949219 C 55.144531 47.191406 55.0625 47.394531 54.890625 47.566406 C 54.722656 47.734375 54.515625 47.820312 54.277344 47.820312 L 15.335938 47.820312 C 15.097656 47.820312 14.890625 47.734375 14.722656 47.566406 C 14.550781 47.394531 14.46875 47.191406 14.46875 46.949219 L 14.46875 24.898438 C 14.46875 24.65625 14.550781 24.453125 14.722656 24.28125 C 14.890625 24.113281 15.097656 24.027344 15.335938 24.027344 Z M 15.335938 24.027344 " fill-opacity="1" fill-rule="nonzero"/><path fill="#ffffff" d="M 54.585938 26.652344 L 54.585938 46.640625 C 54.585938 46.785156 54.535156 46.910156 54.429688 47.011719 C 54.328125 47.117188 54.203125 47.167969 54.058594 47.167969 L 15.554688 47.167969 C 15.410156 47.167969 15.285156 47.117188 15.183594 47.011719 C 15.082031 46.910156 15.027344 46.785156 15.027344 46.640625 L 15.027344 26.652344 C 15.027344 26.507812 15.082031 26.382812 15.183594 26.28125 C 15.285156 26.179688 15.410156 26.128906 15.554688 26.128906 L 54.058594 26.128906 C 54.203125 26.128906 54.328125 26.179688 54.429688 26.28125 C 54.535156 26.382812 54.585938 26.507812 54.585938 26.652344 Z M 54.585938 26.652344 " fill-opacity="1" fill-rule="nonzero"/><path fill="#ffffff" d="M 54.324219 25.078125 C 54.324219 25.222656 54.273438 25.34375 54.171875 25.445312 C 54.074219 25.546875 53.949219 25.597656 53.808594 25.597656 C 53.667969 25.597656 53.542969 25.546875 53.445312 25.445312 C 53.34375 25.34375 53.292969 25.222656 53.292969 25.078125 C 53.292969 24.9375 53.34375 24.816406 53.445312 24.714844 C 53.542969 24.613281 53.667969 24.5625 53.808594 24.5625 C 53.949219 24.5625 54.074219 24.613281 54.171875 24.714844 C 54.273438 24.816406 54.324219 24.9375 54.324219 25.078125 Z M 54.324219 25.078125 " fill-opacity="1" fill-rule="nonzero"/><path fill="#ffffff" d="M 52.621094 25.078125 C 52.621094 25.222656 52.570312 25.34375 52.46875 25.445312 C 52.371094 25.546875 52.246094 25.597656 52.105469 25.597656 C 51.960938 25.59375 51.839844 25.546875 51.742188 25.445312 C 51.640625 25.34375 51.589844 25.222656 51.589844 25.078125 C 51.589844 24.933594 51.640625 24.8125 51.742188 24.714844 C 51.84375 24.613281 51.964844 24.5625 52.109375 24.5625 C 52.25 24.5625 52.371094 24.613281 52.472656 24.714844 C 52.570312 24.816406 52.621094 24.9375 52.621094 25.078125 Z M 52.621094 25.078125 " fill-opacity="1" fill-rule="nonzero"/><path fill="#ffffff" d="M 50.921875 25.078125 C 50.921875 25.222656 50.871094 25.34375 50.769531 25.445312 C 50.667969 25.546875 50.546875 25.597656 50.40625 25.597656 C 50.261719 25.597656 50.140625 25.546875 50.039062 25.445312 C 49.941406 25.34375 49.890625 25.222656 49.890625 25.078125 C 49.890625 24.9375 49.941406 24.816406 50.039062 24.714844 C 50.140625 24.613281 50.261719 24.5625 50.40625 24.5625 C 50.546875 24.5625 50.667969 24.613281 50.769531 24.714844 C 50.871094 24.816406 50.921875 24.9375 50.921875 25.078125 Z M 50.921875 25.078125 " fill-opacity="1" fill-rule="nonzero"/><path stroke-linecap="butt" transform="matrix(0.190235, 0, 0, 0.190538, 0.0307558, 7.915906)" fill="none" stroke-linejoin="round" d="M 163.225458 156.968109 L 163.225458 158.464697 L 161.726494 158.464697 " stroke="#38356e" stroke-width="0.5" stroke-opacity="1" stroke-miterlimit="4"/><path fill="#38356e" d="M 30.21875 38.15625 L 29.640625 38.15625 L 29.640625 38.0625 L 30.21875 38.0625 M 29.0625 38.15625 L 28.484375 38.15625 L 28.484375 38.0625 L 29.0625 38.0625 M 27.90625 38.15625 L 27.328125 38.15625 L 27.328125 38.0625 L 27.90625 38.0625 M 26.75 38.15625 L 26.171875 38.15625 L 26.171875 38.0625 L 26.75 38.0625 M 25.59375 38.15625 L 25.015625 38.15625 L 25.015625 38.0625 L 25.59375 38.0625 M 24.4375 38.15625 L 23.859375 38.15625 L 23.859375 38.0625 L 24.4375 38.0625 M 23.28125 38.15625 L 22.699219 38.15625 L 22.699219 38.0625 L 23.28125 38.0625 M 22.121094 38.15625 L 21.542969 38.15625 L 21.542969 38.0625 L 22.121094 38.0625 M 20.964844 38.15625 L 20.386719 38.15625 L 20.386719 38.0625 L 20.964844 38.0625 M 19.808594 38.15625 L 19.230469 38.15625 L 19.230469 38.0625 L 19.808594 38.0625 M 18.652344 38.15625 L 18.074219 38.15625 L 18.074219 38.0625 L 18.652344 38.0625 M 17.496094 38.15625 L 16.917969 38.15625 L 16.917969 38.0625 L 17.496094 38.0625 " fill-opacity="1" fill-rule="nonzero"/><path stroke-linecap="butt" transform="matrix(0.190235, 0, 0, 0.190538, 0.0307558, 7.915906)" fill="none" stroke-linejoin="round" d="M 85.710513 158.464697 L 84.211549 158.464697 L 84.211549 156.968109 " stroke="#38356e" stroke-width="0.5" stroke-opacity="1" stroke-miterlimit="4"/><path fill="#38356e" d="M 16.003906 37.222656 L 16.003906 36.621094 L 16.097656 36.621094 L 16.097656 37.222656 M 16.003906 36.019531 L 16.003906 35.417969 L 16.097656 35.417969 L 16.097656 36.019531 M 16.003906 34.8125 L 16.003906 34.210938 L 16.097656 34.210938 L 16.097656 34.8125 M 16.003906 33.609375 L 16.003906 33.007812 L 16.097656 33.007812 L 16.097656 33.609375 M 16.003906 32.40625 L 16.003906 31.804688 L 16.097656 31.804688 L 16.097656 32.40625 M 16.003906 31.203125 L 16.003906 30.597656 L 16.097656 30.597656 L 16.097656 31.203125 M 16.003906 29.996094 L 16.003906 29.394531 L 16.097656 29.394531 L 16.097656 29.996094 M 16.003906 28.792969 L 16.003906 28.191406 L 16.097656 28.191406 L 16.097656 28.792969 " fill-opacity="1" fill-rule="nonzero"/><path stroke-linecap="butt" transform="matrix(0.190235, 0, 0, 0.190538, 0.0307558, 7.915906)" fill="none" stroke-linejoin="round" d="M 84.211549 103.234431 L 84.211549 101.737842 L 85.710513 101.737842 " stroke="#38356e" stroke-width="0.5" stroke-opacity="1" stroke-miterlimit="4"/><path fill="#38356e" d="M 16.914062 27.253906 L 17.492188 27.253906 L 17.492188 27.347656 L 16.914062 27.347656 M 18.070312 27.253906 L 18.648438 27.253906 L 18.648438 27.347656 L 18.070312 27.347656 M 19.226562 27.253906 L 19.804688 27.253906 L 19.804688 27.347656 L 19.226562 27.347656 M 20.382812 27.253906 L 20.960938 27.253906 L 20.960938 27.347656 L 20.382812 27.347656 M 21.539062 27.253906 L 22.117188 27.253906 L 22.117188 27.347656 L 21.539062 27.347656 M 22.699219 27.253906 L 23.277344 27.253906 L 23.277344 27.347656 L 22.699219 27.347656 M 23.855469 27.253906 L 24.433594 27.253906 L 24.433594 27.347656 L 23.855469 27.347656 M 25.011719 27.253906 L 25.589844 27.253906 L 25.589844 27.347656 L 25.011719 27.347656 M 26.167969 27.253906 L 26.746094 27.253906 L 26.746094 27.347656 L 26.167969 27.347656 M 27.324219 27.253906 L 27.902344 27.253906 L 27.902344 27.347656 L 27.324219 27.347656 M 28.480469 27.253906 L 29.058594 27.253906 L 29.058594 27.347656 L 28.480469 27.347656 M 29.636719 27.253906 L 30.214844 27.253906 L 30.214844 27.347656 L 29.636719 27.347656 " fill-opacity="1" fill-rule="nonzero"/><path stroke-linecap="butt" transform="matrix(0.190235, 0, 0, 0.190538, 0.0307558, 7.915906)" fill="none" stroke-linejoin="round" d="M 161.726494 101.737842 L 163.225458 101.737842 L 163.225458 103.234431 " stroke="#38356e" stroke-width="0.5" stroke-opacity="1" stroke-miterlimit="4"/><path fill="#38356e" d="M 31.128906 28.1875 L 31.128906 28.792969 L 31.035156 28.792969 L 31.035156 28.1875 M 31.128906 29.394531 L 31.128906 29.996094 L 31.035156 29.996094 L 31.035156 29.394531 M 31.128906 30.597656 L 31.128906 31.199219 L 31.035156 31.199219 L 31.035156 30.597656 M 31.128906 31.800781 L 31.128906 32.402344 L 31.035156 32.402344 L 31.035156 31.800781 M 31.128906 33.007812 L 31.128906 33.609375 L 31.035156 33.609375 L 31.035156 33.007812 M 31.128906 34.210938 L 31.128906 34.8125 L 31.035156 34.8125 L 31.035156 34.210938 M 31.128906 35.414062 L 31.128906 36.015625 L 31.035156 36.015625 L 31.035156 35.414062 M 31.128906 36.617188 L 31.128906 37.21875 L 31.035156 37.21875 L 31.035156 36.617188 " fill-opacity="1" fill-rule="nonzero"/><path fill="#45a6af" d="M 17.808594 29.042969 L 32.839844 29.042969 L 32.839844 39.851562 L 17.808594 39.851562 Z M 17.808594 29.042969 " fill-opacity="1" fill-rule="nonzero"/><path stroke-linecap="round" transform="matrix(0.190235, 0, 0, 0.190538, 0.0307558, 7.915906)" fill="none" stroke-linejoin="round" d="M 167.352744 163.056969 L 98.400377 163.056969 L 120.125096 122.075045 L 136.469969 150.243711 L 147.537666 138.55802 Z M 167.352744 163.056969 " stroke="#ffffff" stroke-width="2" stroke-opacity="1" stroke-miterlimit="4"/><path stroke-linecap="round" transform="matrix(0.190235, 0, 0, 0.190538, 0.0307558, 7.915906)" fill="none" stroke-linejoin="round" d="M 146.449376 124.330178 C 146.449376 125.232232 146.285106 126.093283 145.936032 126.913331 C 145.586958 127.73338 145.114682 128.471423 144.478135 129.106961 C 143.841589 129.742499 143.102373 130.214026 142.281023 130.562547 C 141.459673 130.911068 140.597255 131.075077 139.693769 131.075077 C 138.810817 131.075077 137.948399 130.911068 137.127049 130.562547 C 136.285165 130.214026 135.566483 129.742499 134.929937 129.106961 C 134.29339 128.471423 133.80058 127.73338 133.47204 126.913331 C 133.122966 126.093283 132.958696 125.232232 132.958696 124.330178 C 132.958696 123.428125 133.122966 122.567074 133.47204 121.747026 C 133.80058 120.926977 134.29339 120.188933 134.929937 119.553396 C 135.566483 118.917858 136.285165 118.44633 137.127049 118.09781 C 137.948399 117.749289 138.810817 117.585279 139.693769 117.585279 C 140.597255 117.585279 141.459673 117.749289 142.281023 118.09781 C 143.102373 118.44633 143.841589 118.917858 144.478135 119.553396 C 145.114682 120.188933 145.586958 120.926977 145.936032 121.747026 C 146.285106 122.567074 146.449376 123.428125 146.449376 124.330178 Z M 146.449376 124.330178 " stroke="#ffffff" stroke-width="2" stroke-opacity="1" stroke-miterlimit="4"/><path fill="#d5d4eb" d="M 34.566406 27.46875 L 53.292969 27.46875 L 53.292969 28.621094 L 34.566406 28.621094 Z M 34.566406 27.46875 " fill-opacity="1" fill-rule="nonzero"/><path fill="#d5d4eb" d="M 34.566406 29.589844 L 39.949219 29.589844 L 39.949219 30.167969 L 34.566406 30.167969 Z M 34.566406 29.589844 " fill-opacity="1" fill-rule="nonzero"/><path fill="#d5d4eb" d="M 40.683594 29.589844 L 42.867188 29.589844 L 42.867188 30.167969 L 40.683594 30.167969 Z M 40.683594 29.589844 " fill-opacity="1" fill-rule="nonzero"/><path fill="#d5d4eb" d="M 43.703125 29.589844 L 49.433594 29.589844 L 49.433594 30.167969 L 43.703125 30.167969 Z M 43.703125 29.589844 " fill-opacity="1" fill-rule="nonzero"/><path fill="#d5d4eb" d="M 49.890625 29.589844 L 53.292969 29.589844 L 53.292969 30.167969 L 49.890625 30.167969 Z M 49.890625 29.589844 " fill-opacity="1" fill-rule="nonzero"/><path fill="#d5d4eb" d="M 34.566406 31.03125 L 41.660156 31.03125 L 41.660156 31.605469 L 34.566406 31.605469 Z M 34.566406 31.03125 " fill-opacity="1" fill-rule="nonzero"/><path fill="#d5d4eb" d="M 42.449219 31.03125 L 45.207031 31.03125 L 45.207031 31.605469 L 42.449219 31.605469 Z M 42.449219 31.03125 " fill-opacity="1" fill-rule="nonzero"/><path fill="#d5d4eb" d="M 45.835938 31.03125 L 48.597656 31.03125 L 48.597656 31.605469 L 45.835938 31.605469 Z M 45.835938 31.03125 " fill-opacity="1" fill-rule="nonzero"/><path fill="#d5d4eb" d="M 49.023438 31.03125 L 52.527344 31.03125 L 52.527344 31.605469 L 49.023438 31.605469 Z M 49.023438 31.03125 " fill-opacity="1" fill-rule="nonzero"/><path fill="#d5d4eb" d="M 34.566406 32.464844 L 36.542969 32.464844 L 36.542969 33.042969 L 34.566406 33.042969 Z M 34.566406 32.464844 " fill-opacity="1" fill-rule="nonzero"/><path fill="#d5d4eb" d="M 43.828125 32.464844 L 47.375 32.464844 L 47.375 33.042969 L 43.828125 33.042969 Z M 43.828125 32.464844 " fill-opacity="1" fill-rule="nonzero"/><path fill="#d5d4eb" d="M 36.996094 32.464844 L 43.234375 32.464844 L 43.234375 33.042969 L 36.996094 33.042969 Z M 36.996094 32.464844 " fill-opacity="1" fill-rule="nonzero"/><path fill="#d5d4eb" d="M 34.566406 33.902344 L 39.039062 33.902344 L 39.039062 34.480469 L 34.566406 34.480469 Z M 34.566406 33.902344 " fill-opacity="1" fill-rule="nonzero"/><path fill="#d5d4eb" d="M 39.808594 33.902344 L 41.3125 33.902344 L 41.3125 34.480469 L 39.808594 34.480469 Z M 39.808594 33.902344 " fill-opacity="1" fill-rule="nonzero"/><path fill="#d5d4eb" d="M 42.011719 33.902344 L 44.964844 33.902344 L 44.964844 34.480469 L 42.011719 34.480469 Z M 42.011719 33.902344 " fill-opacity="1" fill-rule="nonzero"/><path fill="#d5d4eb" d="M 34.566406 35.339844 L 36.28125 35.339844 L 36.28125 35.917969 L 34.566406 35.917969 Z M 34.566406 35.339844 " fill-opacity="1" fill-rule="nonzero"/><path fill="#d5d4eb" d="M 36.925781 35.339844 L 40.683594 35.339844 L 40.683594 35.917969 L 36.925781 35.917969 Z M 36.925781 35.339844 " fill-opacity="1" fill-rule="nonzero"/><path fill="#d5d4eb" d="M 16.050781 41 L 32.839844 41 L 32.839844 46 L 16.050781 46 Z M 16.050781 41 " fill-opacity="1" fill-rule="nonzero"/><path fill="#ffffff" d="M 16.496094 41.339844 L 19.683594 41.339844 L 19.683594 44.308594 L 16.496094 44.308594 Z M 16.496094 41.339844 " fill-opacity="1" fill-rule="nonzero"/><path fill="#ffffff" d="M 16.496094 44.75 L 19.683594 44.75 L 19.683594 45.632812 L 16.496094 45.632812 Z M 16.496094 44.75 " fill-opacity="1" fill-rule="nonzero"/><path fill="#ffffff" d="M 23.742188 45.632812 L 20.558594 45.632812 L 20.558594 42.664062 L 23.742188 42.664062 Z M 23.742188 45.632812 " fill-opacity="1" fill-rule="nonzero"/><path fill="#ffffff" d="M 23.742188 42.21875 L 20.558594 42.21875 L 20.558594 41.339844 L 23.742188 41.339844 Z M 23.742188 42.21875 " fill-opacity="1" fill-rule="nonzero"/><path fill="#ffffff" d="M 24.933594 41.339844 L 28.117188 41.339844 L 28.117188 44.308594 L 24.933594 44.308594 Z M 24.933594 41.339844 " fill-opacity="1" fill-rule="nonzero"/><path fill="#ffffff" d="M 24.933594 44.75 L 28.117188 44.75 L 28.117188 45.632812 L 24.933594 45.632812 Z M 24.933594 44.75 " fill-opacity="1" fill-rule="nonzero"/><path fill="#ffffff" d="M 32.179688 45.632812 L 28.992188 45.632812 L 28.992188 42.664062 L 32.179688 42.664062 Z M 32.179688 45.632812 " fill-opacity="1" fill-rule="nonzero"/><path fill="#ffffff" d="M 32.179688 42.21875 L 28.992188 42.21875 L 28.992188 41.339844 L 32.179688 41.339844 Z M 32.179688 42.21875 " fill-opacity="1" fill-rule="nonzero"/><path fill="#46a6ae" d="M 53.859375 37.984375 L 34.957031 37.984375 L 34.957031 37.34375 C 34.957031 37.234375 34.996094 37.140625 35.074219 37.0625 C 35.152344 36.988281 35.246094 36.949219 35.355469 36.949219 L 53.46875 36.949219 C 53.574219 36.949219 53.667969 36.988281 53.746094 37.066406 C 53.820312 37.140625 53.859375 37.234375 53.859375 37.34375 Z M 53.859375 37.984375 " fill-opacity="1" fill-rule="nonzero"/><path fill="#46a6ae" d="M 53.667969 37.785156 L 53.667969 45.625 C 53.667969 45.714844 53.636719 45.789062 53.574219 45.855469 C 53.507812 45.917969 53.433594 45.949219 53.34375 45.949219 L 35.476562 45.949219 C 35.386719 45.949219 35.308594 45.917969 35.246094 45.855469 C 35.179688 45.789062 35.148438 45.714844 35.148438 45.625 L 35.148438 37.785156 L 53.667969 37.785156 M 53.859375 37.59375 L 34.957031 37.59375 L 34.957031 45.625 C 34.957031 45.765625 35.007812 45.886719 35.109375 45.988281 C 35.210938 46.089844 35.332031 46.140625 35.476562 46.140625 L 53.34375 46.140625 C 53.484375 46.140625 53.605469 46.089844 53.707031 45.988281 C 53.808594 45.886719 53.859375 45.765625 53.859375 45.625 Z M 53.859375 37.59375 " fill-opacity="1" fill-rule="nonzero"/><path fill="#d5d4eb" d="M 35.617188 38.621094 L 37.996094 38.621094 L 37.996094 45.492188 L 35.617188 45.492188 Z M 35.617188 38.621094 " fill-opacity="1" fill-rule="nonzero"/><path fill="#d5d4eb" d="M 41.542969 38.621094 L 53.03125 38.621094 L 53.03125 45.492188 L 41.542969 45.492188 Z M 41.542969 38.621094 " fill-opacity="1" fill-rule="nonzero"/><path fill="#ffffff" d="M 42.15625 38.984375 L 52.46875 38.984375 L 52.46875 39.6875 L 42.15625 39.6875 Z M 42.15625 38.984375 " fill-opacity="1" fill-rule="nonzero"/><path fill="#ffffff" d="M 42.15625 40.105469 L 52.46875 40.105469 L 52.46875 40.457031 L 42.15625 40.457031 Z M 42.15625 40.105469 " fill-opacity="1" fill-rule="nonzero"/><path fill="#d5d4eb" d="M 38.492188 40.105469 L 40.871094 40.105469 L 40.871094 40.925781 L 38.492188 40.925781 Z M 38.492188 40.105469 " fill-opacity="1" fill-rule="nonzero"/><path fill="#ffffff" d="M 42.15625 40.773438 L 44.371094 40.773438 L 44.371094 44.976562 L 42.15625 44.976562 Z M 42.15625 40.773438 " fill-opacity="1" fill-rule="nonzero"/><path fill="#ffffff" d="M 47.601562 40.773438 L 49.820312 40.773438 L 49.820312 44.976562 L 47.601562 44.976562 Z M 47.601562 40.773438 " fill-opacity="1" fill-rule="nonzero"/><path fill="#ffffff" d="M 47.265625 45.074219 L 44.867188 45.074219 L 44.867188 40.679688 L 47.273438 40.679688 Z M 45.046875 44.882812 L 47.074219 44.882812 L 47.074219 40.871094 L 45.054688 40.871094 Z M 45.046875 44.882812 " fill-opacity="1" fill-rule="nonzero"/><path fill="#ffffff" d="M 52.5625 45.074219 L 50.15625 45.074219 L 50.15625 40.679688 L 52.5625 40.679688 Z M 50.347656 44.882812 L 52.375 44.882812 L 52.375 40.871094 L 50.347656 40.871094 Z M 50.347656 44.882812 " fill-opacity="1" fill-rule="nonzero"/><path fill="#d5d4eb" d="M 38.492188 41.59375 L 40.871094 41.59375 L 40.871094 42.414062 L 38.492188 42.414062 Z M 38.492188 41.59375 " fill-opacity="1" fill-rule="nonzero"/><path fill="#d5d4eb" d="M 38.492188 43.078125 L 40.871094 43.078125 L 40.871094 43.898438 L 38.492188 43.898438 Z M 38.492188 43.078125 " fill-opacity="1" fill-rule="nonzero"/><path fill="#d5d4eb" d="M 38.492188 44.566406 L 40.871094 44.566406 L 40.871094 45.386719 L 38.492188 45.386719 Z M 38.492188 44.566406 " fill-opacity="1" fill-rule="nonzero"/><path fill="#4590b0" d="M 35.507812 15.53125 L 28.640625 15.53125 C 28.421875 15.53125 28.214844 15.574219 28.011719 15.65625 C 27.808594 15.742188 27.628906 15.859375 27.476562 16.015625 C 27.320312 16.171875 27.203125 16.347656 27.117188 16.550781 C 27.035156 16.753906 26.992188 16.964844 26.992188 17.183594 C 26.996094 17.453125 27.058594 17.707031 27.183594 17.945312 L 26.648438 18.925781 C 26.574219 19.050781 26.585938 19.164062 26.683594 19.273438 C 26.78125 19.378906 26.898438 19.398438 27.027344 19.335938 L 28.308594 18.792969 C 28.421875 18.816406 28.535156 18.828125 28.652344 18.828125 L 35.515625 18.828125 C 35.734375 18.828125 35.945312 18.789062 36.148438 18.703125 C 36.351562 18.621094 36.527344 18.5 36.683594 18.347656 C 36.839844 18.191406 36.957031 18.011719 37.042969 17.808594 C 37.125 17.609375 37.167969 17.398438 37.167969 17.179688 C 37.164062 16.957031 37.125 16.746094 37.039062 16.546875 C 36.953125 16.34375 36.832031 16.164062 36.679688 16.011719 C 36.523438 15.855469 36.34375 15.738281 36.140625 15.652344 C 35.9375 15.570312 35.726562 15.53125 35.507812 15.53125 Z M 35.507812 15.53125 " fill-opacity="1" fill-rule="nonzero"/><path fill="#ffffff" d="M 29.53125 17.191406 C 29.53125 17.351562 29.472656 17.492188 29.359375 17.605469 C 29.246094 17.71875 29.109375 17.777344 28.945312 17.777344 C 28.785156 17.777344 28.648438 17.71875 28.535156 17.605469 C 28.417969 17.492188 28.363281 17.351562 28.363281 17.191406 C 28.363281 17.03125 28.417969 16.890625 28.535156 16.777344 C 28.648438 16.664062 28.785156 16.605469 28.945312 16.605469 C 29.109375 16.605469 29.246094 16.664062 29.359375 16.777344 C 29.472656 16.890625 29.53125 17.03125 29.53125 17.191406 Z M 29.53125 17.191406 " fill-opacity="1" fill-rule="nonzero"/><path fill="#ffffff" d="M 31.660156 17.191406 C 31.660156 17.351562 31.605469 17.492188 31.488281 17.605469 C 31.375 17.71875 31.238281 17.777344 31.078125 17.777344 C 30.914062 17.777344 30.777344 17.71875 30.664062 17.605469 C 30.550781 17.492188 30.492188 17.351562 30.492188 17.191406 C 30.492188 17.03125 30.550781 16.890625 30.664062 16.777344 C 30.777344 16.664062 30.914062 16.605469 31.078125 16.605469 C 31.238281 16.605469 31.375 16.664062 31.488281 16.777344 C 31.601562 16.890625 31.660156 17.03125 31.660156 17.191406 Z M 31.660156 17.191406 " fill-opacity="1" fill-rule="nonzero"/><path fill="#ffffff" d="M 33.789062 17.191406 C 33.789062 17.351562 33.734375 17.492188 33.617188 17.605469 C 33.503906 17.71875 33.367188 17.777344 33.207031 17.777344 C 33.042969 17.777344 32.90625 17.71875 32.792969 17.605469 C 32.679688 17.492188 32.621094 17.351562 32.621094 17.191406 C 32.621094 17.03125 32.679688 16.890625 32.792969 16.777344 C 32.90625 16.664062 33.042969 16.605469 33.207031 16.605469 C 33.367188 16.605469 33.503906 16.664062 33.617188 16.777344 C 33.734375 16.890625 33.789062 17.03125 33.789062 17.191406 Z M 33.789062 17.191406 " fill-opacity="1" fill-rule="nonzero"/><path fill="#ffffff" d="M 35.925781 17.191406 C 35.925781 17.351562 35.867188 17.492188 35.753906 17.605469 C 35.640625 17.71875 35.5 17.777344 35.339844 17.777344 C 35.179688 17.777344 35.042969 17.71875 34.925781 17.605469 C 34.8125 17.492188 34.757812 17.351562 34.757812 17.191406 C 34.757812 17.03125 34.8125 16.890625 34.925781 16.777344 C 35.042969 16.664062 35.179688 16.605469 35.339844 16.605469 C 35.5 16.605469 35.640625 16.664062 35.753906 16.777344 C 35.867188 16.890625 35.925781 17.03125 35.925781 17.191406 Z M 35.925781 17.191406 " fill-opacity="1" fill-rule="nonzero"/><path fill="#4590b0" d="M 61.007812 32.273438 L 54.140625 32.273438 C 53.921875 32.273438 53.710938 32.316406 53.511719 32.398438 C 53.308594 32.484375 53.128906 32.601562 52.976562 32.757812 C 52.820312 32.914062 52.703125 33.089844 52.617188 33.292969 C 52.535156 33.496094 52.492188 33.707031 52.492188 33.925781 C 52.492188 34.195312 52.554688 34.449219 52.683594 34.6875 L 52.144531 35.671875 C 52.074219 35.796875 52.085938 35.914062 52.183594 36.019531 C 52.28125 36.125 52.394531 36.148438 52.523438 36.085938 L 53.804688 35.542969 C 53.917969 35.566406 54.03125 35.578125 54.148438 35.578125 L 61.015625 35.578125 C 61.234375 35.578125 61.445312 35.535156 61.644531 35.453125 C 61.847656 35.367188 62.027344 35.25 62.179688 35.09375 C 62.335938 34.9375 62.453125 34.761719 62.539062 34.558594 C 62.621094 34.355469 62.664062 34.144531 62.664062 33.925781 C 62.664062 33.707031 62.621094 33.496094 62.539062 33.292969 C 62.453125 33.089844 62.332031 32.910156 62.179688 32.753906 C 62.023438 32.601562 61.84375 32.480469 61.640625 32.398438 C 61.4375 32.3125 61.226562 32.273438 61.007812 32.273438 Z M 61.007812 32.273438 " fill-opacity="1" fill-rule="nonzero"/><path fill="#ffffff" d="M 55.03125 33.9375 C 55.03125 34.097656 54.972656 34.238281 54.859375 34.351562 C 54.746094 34.464844 54.605469 34.523438 54.445312 34.523438 C 54.285156 34.523438 54.148438 34.464844 54.03125 34.351562 C 53.917969 34.238281 53.863281 34.097656 53.863281 33.9375 C 53.863281 33.777344 53.917969 33.636719 54.03125 33.523438 C 54.148438 33.410156 54.285156 33.351562 54.445312 33.351562 C 54.605469 33.351562 54.746094 33.410156 54.859375 33.523438 C 54.972656 33.636719 55.03125 33.777344 55.03125 33.9375 Z M 55.03125 33.9375 " fill-opacity="1" fill-rule="nonzero"/><path fill="#ffffff" d="M 57.160156 33.9375 C 57.160156 34.097656 57.101562 34.238281 56.988281 34.351562 C 56.871094 34.464844 56.734375 34.523438 56.574219 34.523438 C 56.414062 34.523438 56.273438 34.464844 56.160156 34.351562 C 56.046875 34.234375 55.988281 34.097656 55.992188 33.9375 C 55.992188 33.773438 56.046875 33.636719 56.164062 33.523438 C 56.277344 33.410156 56.414062 33.351562 56.578125 33.351562 C 56.738281 33.351562 56.875 33.410156 56.988281 33.523438 C 57.101562 33.640625 57.160156 33.777344 57.160156 33.9375 Z M 57.160156 33.9375 " fill-opacity="1" fill-rule="nonzero"/><path fill="#ffffff" d="M 59.289062 33.9375 C 59.289062 34.097656 59.230469 34.238281 59.117188 34.351562 C 59.003906 34.464844 58.867188 34.523438 58.707031 34.523438 C 58.542969 34.523438 58.40625 34.464844 58.292969 34.351562 C 58.179688 34.238281 58.121094 34.097656 58.121094 33.9375 C 58.121094 33.777344 58.179688 33.636719 58.292969 33.523438 C 58.40625 33.410156 58.542969 33.351562 58.707031 33.351562 C 58.867188 33.351562 59.003906 33.410156 59.117188 33.523438 C 59.230469 33.636719 59.289062 33.777344 59.289062 33.9375 Z M 59.289062 33.9375 " fill-opacity="1" fill-rule="nonzero"/><path fill="#ffffff" d="M 61.414062 33.9375 C 61.414062 34.097656 61.359375 34.238281 61.246094 34.351562 C 61.128906 34.464844 60.992188 34.523438 60.832031 34.523438 C 60.667969 34.523438 60.53125 34.464844 60.417969 34.351562 C 60.304688 34.234375 60.246094 34.097656 60.246094 33.9375 C 60.25 33.773438 60.304688 33.636719 60.421875 33.523438 C 60.535156 33.410156 60.671875 33.351562 60.832031 33.351562 C 60.996094 33.351562 61.132812 33.410156 61.246094 33.523438 C 61.359375 33.640625 61.414062 33.777344 61.414062 33.9375 Z M 61.414062 33.9375 " fill-opacity="1" fill-rule="nonzero"/><path fill="#4590b0" d="M 19.15625 45.472656 L 18.878906 45.707031 C 17.949219 46.496094 16.886719 47.03125 15.699219 47.308594 L 15.304688 47.402344 C 15.101562 47.136719 14.875 46.898438 14.617188 46.683594 C 14.359375 46.472656 14.082031 46.296875 13.785156 46.148438 C 13.484375 46.003906 13.171875 45.894531 12.847656 45.824219 C 12.523438 45.75 12.195312 45.71875 11.863281 45.722656 C 11.53125 45.726562 11.203125 45.773438 10.882812 45.855469 C 10.558594 45.9375 10.253906 46.054688 9.957031 46.210938 C 9.664062 46.367188 9.390625 46.554688 9.140625 46.773438 C 8.894531 46.992188 8.671875 47.238281 8.480469 47.511719 C 8.289062 47.785156 8.128906 48.074219 8.007812 48.382812 C 7.882812 48.691406 7.796875 49.011719 7.75 49.339844 C 7.703125 49.671875 7.691406 50 7.722656 50.332031 C 7.75 50.664062 7.820312 50.988281 7.925781 51.304688 C 8.03125 51.617188 8.171875 51.917969 8.347656 52.199219 C 8.523438 52.480469 8.730469 52.738281 8.96875 52.972656 C 9.203125 53.207031 9.464844 53.410156 9.75 53.582031 C 10.035156 53.753906 10.335938 53.890625 10.652344 53.992188 C 10.96875 54.089844 11.292969 54.152344 11.625 54.179688 C 11.957031 54.203125 12.285156 54.1875 12.613281 54.132812 C 12.941406 54.078125 13.257812 53.988281 13.566406 53.859375 C 13.871094 53.730469 14.160156 53.570312 14.429688 53.371094 C 14.695312 53.175781 14.9375 52.949219 15.152344 52.695312 C 15.367188 52.441406 15.550781 52.167969 15.703125 51.871094 C 15.851562 51.574219 15.964844 51.261719 16.042969 50.9375 C 16.121094 50.617188 16.160156 50.289062 16.160156 49.953125 C 16.160156 49.886719 16.160156 49.824219 16.160156 49.761719 L 16.539062 49.496094 C 17.921875 48.53125 18.878906 47.253906 19.414062 45.652344 C 19.445312 45.574219 19.425781 45.507812 19.355469 45.460938 C 19.285156 45.410156 19.21875 45.414062 19.15625 45.472656 Z M 19.15625 45.472656 " fill-opacity="1" fill-rule="nonzero"/><path fill="#ffffff" d="M 12.238281 47.351562 L 12.8125 48.515625 C 12.863281 48.621094 12.949219 48.683594 13.070312 48.703125 L 14.351562 48.894531 C 14.488281 48.914062 14.582031 48.996094 14.625 49.128906 C 14.667969 49.265625 14.640625 49.382812 14.539062 49.480469 L 13.613281 50.386719 C 13.527344 50.472656 13.496094 50.574219 13.515625 50.691406 L 13.734375 51.96875 C 13.757812 52.109375 13.710938 52.222656 13.597656 52.304688 C 13.480469 52.390625 13.359375 52.398438 13.234375 52.332031 L 12.09375 51.726562 C 11.988281 51.671875 11.878906 51.671875 11.773438 51.726562 L 10.628906 52.332031 C 10.503906 52.398438 10.382812 52.390625 10.269531 52.304688 C 10.152344 52.222656 10.109375 52.109375 10.132812 51.96875 L 10.351562 50.691406 C 10.371094 50.574219 10.339844 50.472656 10.253906 50.386719 L 9.324219 49.480469 C 9.222656 49.382812 9.195312 49.265625 9.238281 49.128906 C 9.285156 48.996094 9.375 48.914062 9.515625 48.894531 L 10.796875 48.703125 C 10.914062 48.683594 11 48.621094 11.054688 48.515625 L 11.625 47.351562 C 11.6875 47.226562 11.792969 47.164062 11.933594 47.164062 C 12.074219 47.164062 12.175781 47.226562 12.238281 47.351562 Z M 12.238281 47.351562 " fill-opacity="1" fill-rule="nonzero"/><path fill="#45a6af" d="M 2.5625 34.488281 L 13.613281 34.488281 L 13.613281 37.347656 L 2.5625 37.347656 Z M 2.5625 34.488281 " fill-opacity="1" fill-rule="nonzero"/><path fill="#ffffff" d="M 6.453125 34.945312 L 5.761719 36.851562 L 5.234375 36.851562 L 4.804688 35.671875 L 4.363281 36.851562 L 3.835938 36.851562 L 3.152344 34.949219 L 3.671875 34.949219 L 4.117188 36.234375 L 4.582031 34.949219 L 5.050781 34.949219 L 5.5 36.234375 L 5.964844 34.949219 Z M 6.453125 34.945312 " fill-opacity="1" fill-rule="nonzero"/><path fill="#ffffff" d="M 9.710938 34.945312 L 9.023438 36.851562 L 8.492188 36.851562 L 8.066406 35.671875 L 7.625 36.851562 L 7.097656 36.851562 L 6.410156 34.949219 L 6.929688 34.949219 L 7.378906 36.234375 L 7.84375 34.949219 L 8.308594 34.949219 L 8.761719 36.234375 L 9.222656 34.949219 Z M 9.710938 34.945312 " fill-opacity="1" fill-rule="nonzero"/><path fill="#ffffff" d="M 12.96875 34.945312 L 12.285156 36.851562 L 11.753906 36.851562 L 11.328125 35.671875 L 10.886719 36.851562 L 10.355469 36.851562 L 9.671875 34.949219 L 10.191406 34.949219 L 10.636719 36.234375 L 11.105469 34.949219 L 11.574219 34.949219 L 12.023438 36.234375 L 12.488281 34.949219 Z M 12.96875 34.945312 " fill-opacity="1" fill-rule="nonzero"/><path stroke-linecap="round" transform="matrix(0.190235, 0, 0, 0.190538, 0.0307558, 7.915906)" fill="none" stroke-linejoin="round" d="M 10.22841 139.460073 L 16.388538 139.460073 " stroke="#ffffff" stroke-width="2" stroke-opacity="1" stroke-miterlimit="4"/><path stroke-linecap="round" transform="matrix(0.190235, 0, 0, 0.190538, 0.0307558, 7.915906)" fill="none" stroke-linejoin="round" d="M 10.22841 154.466961 L 16.388538 154.466961 " stroke="#ffffff" stroke-width="2" stroke-opacity="1" stroke-miterlimit="4"/><path stroke-linecap="round" transform="matrix(0.190235, 0, 0, 0.190538, 0.0307558, 7.915906)" fill="none" stroke-linejoin="round" d="M 13.308474 139.460073 L 13.308474 154.466961 " stroke="#ffffff" stroke-width="2" stroke-opacity="1" stroke-miterlimit="4"/><path fill="#222042" d="M 33.304688 34.601562 L 32.335938 34.34375 L 31.367188 34.082031 L 31.628906 35.050781 L 31.886719 36.023438 L 32.417969 35.492188 L 33.523438 36.597656 L 33.878906 36.242188 L 32.773438 35.132812 Z M 33.304688 34.601562 " fill-opacity="1" fill-rule="nonzero"/></svg>