<svg xmlns="http://www.w3.org/2000/svg" xmlns:xlink="http://www.w3.org/1999/xlink" width="90" zoomAndPan="magnify" viewBox="0 0 67.5 67.499996" height="90" preserveAspectRatio="xMidYMid meet" version="1.0"><defs><clipPath id="id1"><path d="M 34 65 L 41 65 L 41 67.003906 L 34 67.003906 Z M 34 65 " clip-rule="nonzero"/></clipPath><clipPath id="id2"><path d="M 34 64 L 41 64 L 41 67.003906 L 34 67.003906 Z M 34 64 " clip-rule="nonzero"/></clipPath><clipPath id="id3"><path d="M 26 65 L 33 65 L 33 67.003906 L 26 67.003906 Z M 26 65 " clip-rule="nonzero"/></clipPath><clipPath id="id4"><path d="M 26 64 L 33 64 L 33 67.003906 L 26 67.003906 Z M 26 64 " clip-rule="nonzero"/></clipPath><clipPath id="id5"><path d="M 39 24 L 42.722656 24 L 42.722656 32 L 39 32 Z M 39 24 " clip-rule="nonzero"/></clipPath><clipPath id="id6"><path d="M 40 31 L 42.722656 31 L 42.722656 41 L 40 41 Z M 40 31 " clip-rule="nonzero"/></clipPath><clipPath id="id7"><path d="M 40 40 L 42.722656 40 L 42.722656 43 L 40 43 Z M 40 40 " clip-rule="nonzero"/></clipPath><clipPath id="id8"><path d="M 38 22 L 42.722656 22 L 42.722656 28 L 38 28 Z M 38 22 " clip-rule="nonzero"/></clipPath><clipPath id="id9"><path d="M 24.722656 1 L 41 1 L 41 13 L 24.722656 13 Z M 24.722656 1 " clip-rule="nonzero"/></clipPath></defs><g clip-path="url(#id1)"><path fill="#b4b3b3" d="M 34.550781 65.625 C 34.550781 65.625 34.402344 66.75 35.277344 66.925781 C 36.148438 67.105469 37.964844 67.328125 39.144531 67.429688 C 39.472656 67.457031 40.441406 67.199219 40.441406 66.601562 L 34.550781 65.625 " fill-opacity="1" fill-rule="nonzero"/></g><g clip-path="url(#id2)"><path fill="#282321" d="M 37.808594 65.148438 C 37.414062 64.941406 37.203125 64.914062 36.902344 64.890625 L 34.542969 64.890625 C 34.542969 64.890625 34.441406 65.726562 34.710938 66.109375 C 35.203125 66.800781 36.09375 66.746094 37.261719 66.925781 C 38.984375 67.191406 40.457031 67.207031 40.457031 66.550781 C 40.457031 66.207031 39.402344 65.980469 37.808594 65.148438 " fill-opacity="1" fill-rule="nonzero"/></g><path fill="#f29969" d="M 37.085938 64.902344 C 37.035156 65.105469 36.539062 65.234375 35.871094 65.234375 C 35.199219 65.234375 34.75 65.113281 34.65625 64.902344 C 34.578125 64.734375 35.199219 64.570312 35.871094 64.570312 C 36.539062 64.570312 37.128906 64.722656 37.085938 64.902344 " fill-opacity="1" fill-rule="nonzero"/><path fill="#ffffff" d="M 37.726562 65.214844 C 37.773438 65.246094 37.785156 65.300781 37.753906 65.339844 L 37.25 65.953125 C 37.21875 65.996094 37.15625 66.003906 37.109375 65.976562 C 37.058594 65.949219 37.046875 65.894531 37.082031 65.851562 L 37.582031 65.242188 C 37.613281 65.199219 37.679688 65.1875 37.726562 65.214844 " fill-opacity="1" fill-rule="nonzero"/><path fill="#ffffff" d="M 38.089844 65.398438 C 38.136719 65.429688 38.148438 65.484375 38.117188 65.523438 L 37.625 66.125 C 37.59375 66.164062 37.53125 66.175781 37.484375 66.148438 C 37.4375 66.121094 37.425781 66.0625 37.457031 66.023438 L 37.945312 65.425781 C 37.976562 65.382812 38.042969 65.371094 38.089844 65.398438 " fill-opacity="1" fill-rule="nonzero"/><path fill="#ffffff" d="M 38.46875 65.582031 C 38.519531 65.609375 38.527344 65.664062 38.496094 65.707031 L 38.046875 66.277344 C 38.015625 66.316406 37.953125 66.328125 37.90625 66.300781 C 37.859375 66.273438 37.84375 66.214844 37.878906 66.175781 L 38.328125 65.605469 C 38.359375 65.5625 38.421875 65.554688 38.46875 65.582031 " fill-opacity="1" fill-rule="nonzero"/><path fill="#ffffff" d="M 38.871094 65.757812 C 38.917969 65.785156 38.929688 65.839844 38.898438 65.882812 L 38.492188 66.382812 C 38.460938 66.425781 38.394531 66.4375 38.351562 66.410156 C 38.300781 66.378906 38.289062 66.324219 38.320312 66.285156 L 38.726562 65.78125 C 38.757812 65.738281 38.824219 65.726562 38.871094 65.757812 " fill-opacity="1" fill-rule="nonzero"/><path fill="#ffffff" d="M 39.273438 65.9375 C 39.320312 65.964844 39.332031 66.019531 39.300781 66.0625 L 38.929688 66.507812 C 38.898438 66.546875 38.835938 66.558594 38.789062 66.53125 C 38.742188 66.503906 38.730469 66.445312 38.761719 66.40625 L 39.128906 65.960938 C 39.160156 65.917969 39.226562 65.910156 39.273438 65.9375 " fill-opacity="1" fill-rule="nonzero"/><g clip-path="url(#id3)"><path fill="#b4b3b3" d="M 32.417969 65.625 C 32.417969 65.625 32.566406 66.75 31.695312 66.925781 C 30.820312 67.105469 29.003906 67.328125 27.828125 67.429688 C 27.5 67.457031 26.53125 67.199219 26.53125 66.601562 L 32.417969 65.625 " fill-opacity="1" fill-rule="nonzero"/></g><g clip-path="url(#id4)"><path fill="#282321" d="M 29.160156 65.148438 C 29.558594 64.941406 29.769531 64.914062 30.070312 64.890625 L 32.425781 64.890625 C 32.425781 64.890625 32.53125 65.726562 32.261719 66.109375 C 31.769531 66.800781 30.875 66.746094 29.707031 66.925781 C 27.984375 67.191406 26.515625 67.207031 26.515625 66.550781 C 26.515625 66.207031 27.566406 65.980469 29.160156 65.148438 " fill-opacity="1" fill-rule="nonzero"/></g><path fill="#f29969" d="M 29.886719 64.902344 C 29.9375 65.105469 30.429688 65.234375 31.101562 65.234375 C 31.769531 65.234375 32.21875 65.113281 32.316406 64.902344 C 32.394531 64.734375 31.769531 64.570312 31.101562 64.570312 C 30.429688 64.570312 29.839844 64.722656 29.886719 64.902344 " fill-opacity="1" fill-rule="nonzero"/><path fill="#ffffff" d="M 29.242188 65.214844 C 29.195312 65.246094 29.183594 65.300781 29.214844 65.339844 L 29.71875 65.953125 C 29.75 65.996094 29.816406 66.003906 29.863281 65.976562 C 29.910156 65.949219 29.921875 65.894531 29.890625 65.851562 L 29.386719 65.242188 C 29.355469 65.199219 29.292969 65.1875 29.242188 65.214844 " fill-opacity="1" fill-rule="nonzero"/><path fill="#ffffff" d="M 28.882812 65.398438 C 28.835938 65.429688 28.820312 65.484375 28.851562 65.523438 L 29.34375 66.125 C 29.375 66.164062 29.4375 66.175781 29.488281 66.148438 C 29.535156 66.121094 29.546875 66.0625 29.515625 66.023438 L 29.023438 65.425781 C 28.992188 65.382812 28.925781 65.371094 28.882812 65.398438 " fill-opacity="1" fill-rule="nonzero"/><path fill="#ffffff" d="M 28.5 65.582031 C 28.453125 65.609375 28.441406 65.664062 28.472656 65.707031 L 28.921875 66.277344 C 28.953125 66.316406 29.015625 66.328125 29.066406 66.300781 C 29.113281 66.273438 29.125 66.214844 29.09375 66.175781 L 28.644531 65.605469 C 28.609375 65.5625 28.546875 65.554688 28.5 65.582031 " fill-opacity="1" fill-rule="nonzero"/><path fill="#ffffff" d="M 28.101562 65.757812 C 28.054688 65.785156 28.042969 65.839844 28.074219 65.882812 L 28.476562 66.382812 C 28.507812 66.425781 28.574219 66.4375 28.621094 66.410156 C 28.667969 66.378906 28.679688 66.324219 28.648438 66.285156 L 28.246094 65.78125 C 28.210938 65.738281 28.148438 65.726562 28.101562 65.757812 " fill-opacity="1" fill-rule="nonzero"/><path fill="#ffffff" d="M 27.699219 65.9375 C 27.652344 65.964844 27.636719 66.019531 27.667969 66.0625 L 28.039062 66.507812 C 28.070312 66.546875 28.136719 66.558594 28.179688 66.53125 C 28.230469 66.503906 28.242188 66.445312 28.210938 66.40625 L 27.839844 65.960938 C 27.808594 65.917969 27.746094 65.910156 27.699219 65.9375 " fill-opacity="1" fill-rule="nonzero"/><path fill="#73a9c9" d="M 39.804688 37.003906 L 27.945312 37.003906 C 27.945312 37.003906 29.003906 60.113281 29.386719 64.902344 L 32.710938 64.902344 C 32.710938 64.902344 32.65625 51.601562 33.339844 41.464844 C 33.339844 41.464844 34.003906 41.476562 34.03125 41.46875 C 34.742188 51.464844 34.488281 64.902344 34.488281 64.902344 L 37.644531 64.902344 C 38.027344 60.113281 39.804688 37.003906 39.804688 37.003906 " fill-opacity="1" fill-rule="nonzero"/><path fill="#f89c63" d="M 32.574219 21.105469 L 35.085938 21.105469 C 34.996094 20.335938 34.742188 19.5625 34.886719 18.789062 C 34.167969 18.550781 33.449219 18.550781 32.730469 18.789062 C 32.875 19.5625 32.660156 20.335938 32.574219 21.105469 " fill-opacity="1" fill-rule="nonzero"/><path fill="#1e1c1c" d="M 39.804688 22.066406 L 35.046875 21.105469 L 32.648438 21.105469 L 27.886719 22.066406 L 27.886719 39.4375 L 39.804688 39.4375 L 39.804688 22.066406 " fill-opacity="1" fill-rule="nonzero"/><g clip-path="url(#id5)"><path fill="#f89c63" d="M 41.820312 24.707031 L 39.433594 24.707031 C 39.820312 27.367188 40.164062 30.859375 40.492188 31.972656 L 42.351562 31.828125 C 42.5 30.652344 42.273438 28.910156 42.117188 26.953125 C 42.050781 26.15625 41.945312 25.402344 41.820312 24.707031 " fill-opacity="1" fill-rule="nonzero"/></g><g clip-path="url(#id6)"><path fill="#f89c63" d="M 40.398438 31.296875 C 40.304688 32.390625 40.453125 33.433594 40.453125 34.785156 C 40.453125 37.375 40.964844 38.75 41.046875 40.179688 L 42 40.191406 C 42.132812 38.71875 42.257812 37.269531 42.257812 34.675781 C 42.257812 33.328125 42.4375 32.390625 42.34375 31.296875 L 40.398438 31.296875 " fill-opacity="1" fill-rule="nonzero"/></g><g clip-path="url(#id7)"><path fill="#f29969" d="M 41.988281 40.117188 C 41.988281 40.117188 42.324219 41.886719 42.042969 42.292969 C 41.753906 42.703125 40.5625 43.210938 40.25 42.867188 C 40.160156 42.769531 40.351562 42.636719 40.675781 42.523438 C 41.035156 42.402344 41.242188 42.109375 41.289062 41.863281 C 41.324219 41.679688 41.355469 41.378906 41.253906 41.335938 C 41.152344 41.289062 40.949219 41.5 40.847656 41.714844 C 40.703125 42.019531 40.558594 42.175781 40.414062 42.109375 C 40.300781 42.058594 40.304688 41.910156 40.472656 41.554688 C 40.636719 41.203125 41.035156 40.113281 41.035156 40.113281 L 41.988281 40.117188 " fill-opacity="1" fill-rule="nonzero"/></g><g clip-path="url(#id8)"><path fill="#1e1c1c" d="M 42.71875 26.441406 L 41.960938 23.621094 C 41.664062 22.519531 40.648438 21.835938 39.6875 22.09375 C 38.726562 22.351562 38.191406 23.457031 38.484375 24.558594 L 39.242188 27.378906 L 42.71875 26.441406 " fill-opacity="1" fill-rule="nonzero"/></g><path fill="#f89c63" d="M 25.902344 24.707031 L 28.289062 24.707031 C 27.902344 27.367188 27.5625 30.859375 27.230469 31.972656 L 25.375 31.828125 C 25.222656 30.652344 25.453125 28.910156 25.609375 26.953125 C 25.671875 26.15625 25.78125 25.402344 25.902344 24.707031 " fill-opacity="1" fill-rule="nonzero"/><path fill="#f89c63" d="M 27.324219 31.296875 C 27.417969 32.390625 27.273438 33.433594 27.273438 34.785156 C 27.273438 37.375 26.757812 38.75 26.679688 40.179688 L 25.726562 40.191406 C 25.59375 38.71875 25.46875 37.269531 25.46875 34.675781 C 25.46875 33.328125 25.285156 32.390625 25.378906 31.296875 L 27.324219 31.296875 " fill-opacity="1" fill-rule="nonzero"/><path fill="#f29969" d="M 25.738281 40.117188 C 25.738281 40.117188 25.398438 41.886719 25.683594 42.292969 C 25.96875 42.703125 27.160156 43.210938 27.476562 42.867188 C 27.5625 42.769531 27.375 42.636719 27.050781 42.523438 C 26.6875 42.402344 26.484375 42.109375 26.433594 41.863281 C 26.398438 41.679688 26.367188 41.378906 26.472656 41.335938 C 26.574219 41.289062 26.777344 41.5 26.878906 41.714844 C 27.023438 42.019531 27.167969 42.175781 27.3125 42.109375 C 27.421875 42.058594 27.421875 41.910156 27.253906 41.554688 C 27.085938 41.203125 26.6875 40.113281 26.6875 40.113281 L 25.738281 40.117188 " fill-opacity="1" fill-rule="nonzero"/><path fill="#1e1c1c" d="M 25.007812 26.441406 L 25.765625 23.621094 C 26.058594 22.519531 27.078125 21.835938 28.035156 22.09375 C 28.996094 22.351562 29.535156 23.457031 29.238281 24.558594 L 28.480469 27.378906 L 25.007812 26.441406 " fill-opacity="1" fill-rule="nonzero"/><path fill="#f89c63" d="M 32.574219 21.105469 C 32.578125 21.800781 33.136719 22.359375 33.828125 22.359375 C 34.519531 22.359375 35.082031 21.800781 35.085938 21.105469 L 32.574219 21.105469 " fill-opacity="1" fill-rule="nonzero"/><path fill="#f89c63" d="M 41.328125 12.875 C 41.328125 13.71875 40.855469 14.40625 40.269531 14.40625 C 39.683594 14.40625 39.207031 13.71875 39.207031 12.875 C 39.207031 12.03125 39.683594 11.347656 40.269531 11.347656 C 40.855469 11.347656 41.328125 12.03125 41.328125 12.875 " fill-opacity="1" fill-rule="nonzero"/><path fill="#f89c63" d="M 28.453125 12.875 C 28.453125 13.71875 27.980469 14.40625 27.394531 14.40625 C 26.808594 14.40625 26.332031 13.71875 26.332031 12.875 C 26.332031 12.03125 26.808594 11.347656 27.394531 11.347656 C 27.980469 11.347656 28.453125 12.03125 28.453125 12.875 " fill-opacity="1" fill-rule="nonzero"/><path fill="#f89c63" d="M 40.28125 13.609375 C 40.28125 14.902344 37.390625 20.085938 33.824219 20.085938 C 30.253906 20.085938 27.363281 14.964844 27.363281 13.609375 L 27.363281 8.246094 C 27.363281 4.671875 30.253906 1.769531 33.824219 1.769531 C 37.390625 1.769531 40.28125 4.671875 40.28125 8.246094 L 40.28125 13.609375 " fill-opacity="1" fill-rule="nonzero"/><path fill="#282321" d="M 30.925781 12.519531 C 30.925781 12.941406 30.699219 13.28125 30.417969 13.28125 C 30.136719 13.28125 29.910156 12.941406 29.910156 12.519531 C 29.910156 12.101562 30.136719 11.757812 30.417969 11.757812 C 30.699219 11.757812 30.925781 12.101562 30.925781 12.519531 " fill-opacity="1" fill-rule="nonzero"/><path fill="#282321" d="M 37.214844 12.519531 C 37.214844 12.941406 36.988281 13.28125 36.707031 13.28125 C 36.425781 13.28125 36.199219 12.941406 36.199219 12.519531 C 36.199219 12.101562 36.425781 11.757812 36.707031 11.757812 C 36.988281 11.757812 37.214844 12.101562 37.214844 12.519531 " fill-opacity="1" fill-rule="nonzero"/><path fill="#282321" d="M 37.667969 11.144531 C 37.265625 11.0625 36.96875 10.992188 36.679688 10.992188 C 36.535156 10.988281 36.390625 11 36.234375 11.027344 C 36.078125 11.054688 35.910156 11.101562 35.703125 11.144531 C 35.769531 10.945312 35.902344 10.78125 36.074219 10.664062 C 36.25 10.542969 36.46875 10.476562 36.6875 10.484375 C 36.90625 10.488281 37.117188 10.558594 37.289062 10.671875 C 37.457031 10.789062 37.601562 10.941406 37.667969 11.144531 " fill-opacity="1" fill-rule="nonzero"/><path fill="#282321" d="M 31.429688 11.144531 C 31.027344 11.0625 30.730469 10.992188 30.441406 10.992188 C 30.296875 10.988281 30.15625 11 30 11.027344 C 29.839844 11.054688 29.671875 11.101562 29.46875 11.144531 C 29.53125 10.945312 29.664062 10.78125 29.839844 10.664062 C 30.011719 10.542969 30.234375 10.476562 30.449219 10.484375 C 30.667969 10.488281 30.878906 10.558594 31.050781 10.671875 C 31.222656 10.789062 31.363281 10.941406 31.429688 11.144531 " fill-opacity="1" fill-rule="nonzero"/><path fill="#d76a44" d="M 33.757812 11.304688 L 33.160156 14.847656 L 34.335938 14.839844 L 34.332031 14.585938 L 33.460938 14.59375 L 34.007812 11.347656 L 33.757812 11.304688 " fill-opacity="1" fill-rule="nonzero"/><path fill="#f68554" d="M 30.457031 15.289062 C 29.679688 15.289062 29.046875 14.984375 29.046875 14.609375 C 29.046875 14.234375 29.679688 13.933594 30.457031 13.933594 C 31.234375 13.933594 31.863281 14.234375 31.863281 14.609375 C 31.863281 14.984375 31.234375 15.289062 30.457031 15.289062 " fill-opacity="1" fill-rule="nonzero"/><path fill="#f68554" d="M 37.144531 15.289062 C 36.367188 15.289062 35.738281 14.984375 35.738281 14.609375 C 35.738281 14.234375 36.367188 13.933594 37.144531 13.933594 C 37.921875 13.933594 38.550781 14.234375 38.550781 14.609375 C 38.550781 14.984375 37.921875 15.289062 37.144531 15.289062 " fill-opacity="1" fill-rule="nonzero"/><path fill="#a71933" d="M 32.0625 16.46875 C 32.0625 16.46875 33.140625 16.675781 34.28125 16.378906 C 34.898438 16.21875 35.515625 15.847656 36.019531 15.292969 C 36.019531 15.292969 36.480469 17.46875 34.707031 18.007812 C 32.863281 18.566406 32.0625 16.46875 32.0625 16.46875 " fill-opacity="1" fill-rule="nonzero"/><path fill="#ffffff" d="M 34.449219 16.953125 C 35.042969 16.726562 35.195312 16.675781 35.757812 16.289062 C 36.136719 16.03125 36.019531 15.292969 36.019531 15.292969 C 35.515625 15.847656 34.898438 16.21875 34.28125 16.378906 C 33.140625 16.675781 32.0625 16.46875 32.0625 16.46875 C 32.0625 16.46875 32.328125 16.933594 32.710938 17.0625 C 33 17.160156 33.558594 17.289062 34.449219 16.953125 " fill-opacity="1" fill-rule="nonzero"/><path fill="#f36081" d="M 34.707031 18.011719 C 35.125 17.882812 35.417969 17.664062 35.621094 17.40625 C 35.425781 17.179688 34.980469 17.097656 34.507812 17.222656 C 33.976562 17.363281 33.605469 17.714844 33.617188 18.039062 C 33.929688 18.128906 34.292969 18.136719 34.707031 18.011719 " fill-opacity="1" fill-rule="nonzero"/><g clip-path="url(#id9)"><path fill="#1c1815" d="M 38.546875 3.839844 C 37.300781 1.765625 33.375 0.0429688 29.910156 2.53125 C 29.640625 2.726562 29.414062 2.910156 29.214844 3.085938 C 27.1875 4.34375 25.691406 2.8125 25.691406 2.8125 C 25.734375 3.769531 26.207031 4.394531 26.671875 4.785156 C 26.066406 4.804688 25.464844 4.632812 24.71875 4.269531 C 24.71875 4.269531 25.464844 6.441406 27.378906 7.277344 L 27.378906 12.921875 C 27.378906 12.921875 28.121094 12.859375 28.121094 11.800781 C 28.121094 10.664062 28.121094 11.660156 28.121094 10.300781 C 28.121094 8.304688 29.828125 7.746094 30.539062 7.597656 C 32.722656 7.601562 34.214844 7.613281 35.292969 7.613281 C 35.394531 7.613281 35.503906 7.609375 35.613281 7.605469 C 35.664062 7.609375 35.714844 7.613281 35.769531 7.613281 C 38.617188 7.613281 39.546875 10.320312 39.546875 11.558594 C 39.546875 12.625 40.132812 12.867188 40.296875 12.914062 C 40.296875 12.914062 40.296875 8.300781 40.296875 6.394531 C 40.296875 4.394531 39.164062 3.941406 38.546875 3.839844 " fill-opacity="1" fill-rule="nonzero"/></g></svg>