<svg xmlns="http://www.w3.org/2000/svg" xmlns:xlink="http://www.w3.org/1999/xlink" width="90" zoomAndPan="magnify" viewBox="0 0 67.5 67.499996" height="90" preserveAspectRatio="xMidYMid meet" version="1.0"><defs><clipPath id="id1"><path d="M 41 44 L 57 44 L 57 67.003906 L 41 67.003906 Z M 41 44 " clip-rule="nonzero"/></clipPath><clipPath id="id2"><path d="M 42 45 L 57.097656 45 L 57.097656 67.003906 L 42 67.003906 Z M 42 45 " clip-rule="nonzero"/></clipPath><clipPath id="id3"><path d="M 45 66 L 50 66 L 50 67.003906 L 45 67.003906 Z M 45 66 " clip-rule="nonzero"/></clipPath><clipPath id="id4"><path d="M 45 61 L 50 61 L 50 67.003906 L 45 67.003906 Z M 45 61 " clip-rule="nonzero"/></clipPath><clipPath id="id5"><path d="M 11.347656 41 L 47 41 L 47 67.003906 L 11.347656 67.003906 Z M 11.347656 41 " clip-rule="nonzero"/></clipPath><clipPath id="id6"><path d="M 11.347656 44 L 18 44 L 18 67.003906 L 11.347656 67.003906 Z M 11.347656 44 " clip-rule="nonzero"/></clipPath><clipPath id="id7"><path d="M 13 46 L 30 46 L 30 67.003906 L 13 67.003906 Z M 13 46 " clip-rule="nonzero"/></clipPath><clipPath id="id8"><path d="M 12 43 L 34 43 L 34 67.003906 L 12 67.003906 Z M 12 43 " clip-rule="nonzero"/></clipPath><clipPath id="id9"><path d="M 12 43 L 26 43 L 26 67.003906 L 12 67.003906 Z M 12 43 " clip-rule="nonzero"/></clipPath></defs><g clip-path="url(#id1)"><path fill="#be764e" d="M 47.953125 67.820312 L 56.417969 67.820312 C 52.207031 58.339844 46.324219 45.03125 46.324219 45.03125 C 38.722656 42.582031 42.394531 57.285156 42.394531 57.285156 C 43.960938 61.085938 45.996094 64.722656 47.953125 67.820312 " fill-opacity="1" fill-rule="nonzero"/></g><g clip-path="url(#id2)"><path fill="#71bbc1" d="M 57.085938 67.820312 C 53.347656 59.222656 46.324219 45.03125 46.324219 45.03125 L 42.160156 59.867188 C 43.011719 61.976562 44.863281 64.882812 46.957031 67.820312 L 57.085938 67.820312 " fill-opacity="1" fill-rule="nonzero"/></g><g clip-path="url(#id3)"><path fill="#86b5b9" d="M 49.523438 67.820312 L 46.957031 67.820312 C 46.574219 67.285156 46.203125 66.753906 45.84375 66.226562 C 46.203125 66.75 46.574219 67.285156 46.957031 67.820312 L 49.523438 67.820312 " fill-opacity="1" fill-rule="nonzero"/></g><g clip-path="url(#id4)"><path fill="#64a2aa" d="M 49.523438 67.820312 L 46.957031 67.820312 C 46.574219 67.285156 46.203125 66.75 45.84375 66.226562 C 45.902344 64.855469 45.96875 63.335938 46.03125 61.761719 C 46.875 63.59375 48.140625 65.714844 49.523438 67.820312 " fill-opacity="1" fill-rule="nonzero"/></g><g clip-path="url(#id5)"><path fill="#82d0db" d="M 45.773438 67.820312 C 46.101562 60.566406 46.660156 47.023438 46.324219 45.03125 C 46.324219 45.03125 44.378906 41.695312 25.671875 41.148438 C 25.671875 41.148438 14.828125 41.800781 11.753906 46.015625 C 11.753906 46.015625 11.351562 58.265625 14.617188 67.820312 L 45.773438 67.820312 " fill-opacity="1" fill-rule="nonzero"/></g><g clip-path="url(#id6)"><path fill="#6caeb7" d="M 17.65625 67.820312 C 16.484375 61.046875 15.621094 52.046875 15.621094 52.046875 L 14.085938 44.054688 C 13.128906 44.601562 12.3125 45.25 11.753906 46.015625 C 11.753906 46.015625 11.351562 58.265625 14.617188 67.820312 L 17.65625 67.820312 " fill-opacity="1" fill-rule="nonzero"/></g><g clip-path="url(#id7)"><path fill="#4b7f86" d="M 29.46875 67.820312 L 13.703125 46.613281 C 13.703125 46.613281 14.8125 56.96875 20.769531 67.820312 L 29.46875 67.820312 " fill-opacity="1" fill-rule="nonzero"/></g><path fill="#d38256" d="M 25.613281 27.40625 C 25.613281 27.40625 27.074219 40.554688 25.128906 42.101562 C 25.128906 42.101562 34.910156 48.78125 38.210938 43.578125 L 35.894531 42.101562 C 35.894531 42.101562 35.214844 37.53125 35.894531 34.085938 L 25.613281 27.40625 " fill-opacity="1" fill-rule="nonzero"/><path fill="#e0c7c5" d="M 26.066406 38.636719 C 26.066406 38.632812 26.066406 38.632812 26.0625 38.632812 C 26.214844 36.472656 26.109375 33.71875 25.960938 31.476562 L 25.960938 31.480469 C 26.109375 33.71875 26.21875 36.472656 26.066406 38.636719 " fill-opacity="1" fill-rule="nonzero"/><path fill="#c06c4b" d="M 29.394531 39.320312 C 28.171875 39.320312 27.003906 39.132812 26.066406 38.636719 C 26.21875 36.472656 26.109375 33.71875 25.960938 31.480469 C 28.382812 36.292969 32.796875 37.832031 35.21875 38.324219 C 33.667969 38.792969 31.453125 39.320312 29.394531 39.320312 " fill-opacity="1" fill-rule="nonzero"/><path fill="#f29f67" d="M 45.707031 22.011719 C 46.671875 13.542969 46.496094 6.597656 37.363281 5.90625 C 31.191406 5.441406 25.285156 11.457031 24.492188 19.945312 C 24.476562 20.109375 24.464844 20.277344 24.449219 20.441406 C 23.757812 19.605469 22.902344 19.167969 22.117188 19.367188 C 20.726562 19.714844 20.0625 21.882812 20.636719 24.214844 C 21.203125 26.546875 22.792969 28.152344 24.179688 27.804688 C 24.347656 27.765625 24.503906 27.695312 24.652344 27.601562 C 26.796875 38.273438 36.925781 38.554688 36.925781 38.554688 C 46.371094 38.589844 45.707031 22.011719 45.707031 22.011719 " fill-opacity="1" fill-rule="nonzero"/><path fill="#b47651" d="M 39.8125 29.128906 C 39.300781 29.128906 38.890625 28.925781 38.890625 28.925781 C 38.949219 28.945312 39.019531 28.957031 39.097656 28.957031 C 39.90625 28.957031 41.464844 27.828125 41.464844 27.828125 C 41.070312 28.878906 40.378906 29.128906 39.8125 29.128906 " fill-opacity="1" fill-rule="nonzero"/><path fill="#c98459" d="M 24.292969 26.1875 C 24.636719 24.527344 23.703125 23.652344 23.703125 23.652344 C 22.789062 23.679688 22.988281 24.789062 22.988281 24.789062 C 22 23.125 23.261719 22.386719 23.261719 22.386719 C 23.0625 22.070312 22.75 21.976562 22.449219 21.976562 C 21.996094 21.976562 21.558594 22.1875 21.558594 22.1875 C 21.757812 21.210938 22.121094 20.933594 22.46875 20.933594 C 22.933594 20.933594 23.371094 21.425781 23.371094 21.425781 C 25.5625 23.707031 24.292969 26.1875 24.292969 26.1875 " fill-opacity="1" fill-rule="nonzero"/><path fill="#c98459" d="M 27.890625 23.296875 C 27.890625 23.296875 25.246094 21.984375 24.683594 20.820312 C 25.347656 21.578125 26.449219 22.613281 27.582031 22.710938 L 26.878906 21.875 C 26.878906 21.875 27.175781 22.019531 27.664062 22.082031 C 27.746094 22.585938 27.824219 23.027344 27.890625 23.296875 M 27.390625 18.554688 C 27.351562 18.324219 27.324219 18.097656 27.324219 17.886719 C 27.324219 17.722656 27.339844 17.566406 27.375 17.417969 C 27.375 17.417969 29.40625 15.101562 30.085938 12.832031 C 30.085938 12.832031 30.6875 14.394531 34.402344 14.394531 C 36.714844 14.394531 40.234375 13.789062 45.574219 11.824219 C 45.597656 11.957031 45.835938 13 45.859375 13.140625 C 45.203125 13.777344 39.828125 15.636719 35.351562 15.636719 C 33.324219 15.636719 31.480469 15.257812 30.34375 14.203125 C 30.34375 14.203125 29.742188 17.726562 27.390625 18.554688 " fill-opacity="1" fill-rule="nonzero"/><path fill="#704a26" d="M 31.679688 19.34375 C 31.679688 19.34375 31.742188 19.246094 31.886719 19.109375 C 31.960938 19.039062 32.050781 18.957031 32.160156 18.875 C 32.273438 18.792969 32.402344 18.703125 32.554688 18.625 C 32.703125 18.535156 32.875 18.46875 33.058594 18.390625 C 33.152344 18.355469 33.25 18.332031 33.351562 18.300781 C 33.449219 18.265625 33.554688 18.242188 33.660156 18.222656 C 33.769531 18.203125 33.875 18.1875 33.988281 18.167969 C 34.097656 18.160156 34.214844 18.152344 34.328125 18.148438 C 34.558594 18.128906 34.789062 18.164062 35.023438 18.183594 C 35.253906 18.214844 35.480469 18.273438 35.699219 18.328125 C 35.917969 18.40625 36.125 18.492188 36.324219 18.574219 C 36.511719 18.679688 36.691406 18.785156 36.855469 18.886719 C 37.023438 18.992188 37.160156 19.121094 37.289062 19.230469 C 37.417969 19.339844 37.535156 19.441406 37.621094 19.554688 C 37.710938 19.65625 37.785156 19.753906 37.84375 19.832031 C 37.964844 19.988281 38.023438 20.082031 38.023438 20.082031 C 38.023438 20.082031 37.910156 20.050781 37.730469 19.984375 C 37.640625 19.949219 37.53125 19.90625 37.414062 19.855469 C 37.296875 19.800781 37.15625 19.757812 37.007812 19.703125 C 36.859375 19.65625 36.707031 19.582031 36.539062 19.53125 C 36.371094 19.484375 36.195312 19.429688 36.023438 19.367188 C 35.839844 19.324219 35.652344 19.28125 35.46875 19.226562 C 35.277344 19.203125 35.089844 19.152344 34.894531 19.128906 C 34.703125 19.113281 34.511719 19.074219 34.320312 19.074219 C 34.226562 19.074219 34.128906 19.066406 34.035156 19.058594 C 33.941406 19.0625 33.847656 19.066406 33.757812 19.0625 C 33.664062 19.058594 33.574219 19.066406 33.484375 19.074219 C 33.394531 19.078125 33.304688 19.082031 33.21875 19.089844 C 33.050781 19.113281 32.882812 19.117188 32.730469 19.144531 C 32.578125 19.164062 32.4375 19.191406 32.308594 19.210938 C 32.183594 19.234375 32.070312 19.253906 31.976562 19.277344 C 31.882812 19.296875 31.808594 19.3125 31.757812 19.324219 C 31.707031 19.335938 31.679688 19.34375 31.679688 19.34375 " fill-opacity="1" fill-rule="nonzero"/><path fill="#704a26" d="M 41.464844 20.242188 C 41.464844 20.242188 41.484375 20.160156 41.546875 20.035156 C 41.609375 19.90625 41.710938 19.730469 41.875 19.550781 C 42.039062 19.375 42.265625 19.1875 42.558594 19.054688 C 42.703125 18.984375 42.867188 18.929688 43.039062 18.902344 C 43.210938 18.867188 43.394531 18.867188 43.578125 18.882812 C 43.757812 18.902344 43.9375 18.949219 44.101562 19.015625 C 44.265625 19.082031 44.410156 19.175781 44.542969 19.273438 C 44.601562 19.328125 44.664062 19.378906 44.71875 19.433594 C 44.773438 19.488281 44.824219 19.542969 44.867188 19.597656 C 44.957031 19.710938 45.035156 19.820312 45.089844 19.929688 C 45.148438 20.035156 45.191406 20.136719 45.226562 20.230469 C 45.257812 20.320312 45.28125 20.40625 45.296875 20.472656 C 45.324219 20.613281 45.332031 20.695312 45.332031 20.695312 C 45.332031 20.695312 45.257812 20.65625 45.140625 20.585938 C 45.085938 20.546875 45.015625 20.507812 44.9375 20.460938 C 44.863281 20.410156 44.78125 20.359375 44.6875 20.304688 C 44.601562 20.25 44.503906 20.199219 44.40625 20.144531 C 44.355469 20.121094 44.308594 20.09375 44.257812 20.066406 C 44.203125 20.046875 44.15625 20.023438 44.105469 20 C 44.050781 19.980469 44 19.957031 43.949219 19.9375 C 43.894531 19.925781 43.84375 19.902344 43.792969 19.890625 C 43.6875 19.863281 43.582031 19.839844 43.476562 19.832031 C 43.371094 19.816406 43.261719 19.816406 43.152344 19.820312 C 43.042969 19.824219 42.929688 19.839844 42.820312 19.855469 C 42.59375 19.890625 42.371094 19.953125 42.171875 20.015625 C 41.972656 20.074219 41.800781 20.132812 41.671875 20.175781 C 41.542969 20.21875 41.464844 20.242188 41.464844 20.242188 " fill-opacity="1" fill-rule="nonzero"/><path fill="#3b1c17" d="M 40.105469 25.136719 C 40.273438 25.34375 40.425781 25.558594 40.578125 25.773438 C 40.648438 25.878906 40.726562 25.984375 40.796875 26.09375 L 41.015625 26.414062 C 41.085938 26.519531 41.160156 26.628906 41.230469 26.734375 L 41.449219 27.046875 C 41.484375 27.097656 41.519531 27.148438 41.558594 27.199219 C 41.597656 27.25 41.632812 27.300781 41.671875 27.351562 C 41.746094 27.449219 41.824219 27.542969 41.898438 27.632812 L 42.011719 27.765625 L 41.941406 27.898438 C 41.90625 27.960938 41.878906 28.007812 41.84375 28.058594 C 41.8125 28.105469 41.777344 28.15625 41.746094 28.203125 C 41.675781 28.296875 41.601562 28.390625 41.523438 28.476562 C 41.367188 28.652344 41.183594 28.804688 40.988281 28.9375 C 40.785156 29.0625 40.5625 29.160156 40.328125 29.191406 C 40.097656 29.230469 39.859375 29.199219 39.652344 29.117188 C 39.707031 29.113281 39.761719 29.117188 39.816406 29.109375 C 39.871094 29.105469 39.925781 29.101562 39.976562 29.09375 C 40.082031 29.070312 40.183594 29.042969 40.28125 29.003906 C 40.46875 28.921875 40.644531 28.8125 40.796875 28.671875 C 40.953125 28.539062 41.085938 28.378906 41.210938 28.210938 C 41.273438 28.128906 41.332031 28.042969 41.386719 27.953125 L 41.464844 27.820312 C 41.488281 27.777344 41.515625 27.726562 41.535156 27.6875 L 41.574219 27.957031 L 41.429688 27.804688 L 41.300781 27.644531 C 41.214844 27.535156 41.136719 27.425781 41.0625 27.316406 C 40.914062 27.089844 40.789062 26.859375 40.667969 26.625 C 40.605469 26.507812 40.554688 26.382812 40.496094 26.265625 C 40.441406 26.144531 40.394531 26.023438 40.34375 25.898438 C 40.25 25.652344 40.164062 25.402344 40.105469 25.136719 " fill-opacity="1" fill-rule="nonzero"/><path fill="#b47651" d="M 38.089844 33.871094 C 37.347656 33.871094 37.039062 32.855469 37.039062 32.855469 C 37.523438 33.105469 38.15625 33.160156 38.628906 33.160156 C 39.03125 33.160156 39.320312 33.121094 39.320312 33.121094 C 38.820312 33.675781 38.414062 33.871094 38.089844 33.871094 " fill-opacity="1" fill-rule="nonzero"/><path fill="#3b1c17" d="M 21.425781 22.753906 C 21.421875 22.378906 21.480469 22.003906 21.617188 21.632812 C 21.648438 21.539062 21.695312 21.449219 21.746094 21.359375 C 21.796875 21.273438 21.855469 21.183594 21.933594 21.105469 C 22.007812 21.023438 22.097656 20.949219 22.207031 20.894531 C 22.3125 20.839844 22.4375 20.8125 22.558594 20.800781 C 22.617188 20.804688 22.679688 20.800781 22.738281 20.808594 C 22.796875 20.820312 22.855469 20.828125 22.910156 20.84375 C 22.960938 20.863281 23.015625 20.878906 23.070312 20.898438 L 23.210938 20.972656 C 23.304688 21.023438 23.390625 21.082031 23.472656 21.144531 C 23.554688 21.207031 23.636719 21.269531 23.707031 21.335938 C 23.855469 21.46875 23.988281 21.613281 24.109375 21.761719 C 24.171875 21.835938 24.238281 21.90625 24.292969 21.984375 L 24.460938 22.214844 L 24.488281 22.253906 L 24.492188 22.261719 C 24.539062 22.367188 24.574219 22.457031 24.609375 22.550781 C 24.648438 22.648438 24.679688 22.742188 24.714844 22.839844 C 24.777344 23.03125 24.832031 23.226562 24.878906 23.425781 C 24.964844 23.824219 25.027344 24.234375 25.011719 24.652344 C 25 24.863281 24.980469 25.074219 24.929688 25.277344 C 24.902344 25.382812 24.871094 25.484375 24.832031 25.582031 C 24.792969 25.683594 24.75 25.78125 24.691406 25.871094 C 24.640625 25.960938 24.574219 26.046875 24.503906 26.125 C 24.433594 26.207031 24.355469 26.277344 24.273438 26.335938 C 24.1875 26.394531 24.101562 26.453125 24.011719 26.492188 C 23.921875 26.535156 23.824219 26.5625 23.730469 26.59375 C 23.808594 26.527344 23.890625 26.480469 23.957031 26.410156 C 24.03125 26.347656 24.09375 26.277344 24.152344 26.207031 C 24.207031 26.132812 24.261719 26.058594 24.304688 25.980469 C 24.347656 25.898438 24.386719 25.816406 24.410156 25.730469 C 24.445312 25.648438 24.464844 25.5625 24.484375 25.472656 C 24.5 25.386719 24.511719 25.296875 24.519531 25.207031 C 24.53125 25.027344 24.53125 24.847656 24.515625 24.664062 C 24.476562 24.300781 24.410156 23.9375 24.300781 23.578125 C 24.25 23.398438 24.191406 23.222656 24.128906 23.046875 C 24.097656 22.957031 24.066406 22.867188 24.03125 22.78125 L 23.925781 22.53125 L 23.953125 22.578125 L 23.800781 22.363281 C 23.746094 22.292969 23.691406 22.226562 23.640625 22.15625 C 23.585938 22.085938 23.53125 22.019531 23.472656 21.953125 C 23.417969 21.886719 23.363281 21.824219 23.304688 21.765625 C 23.246094 21.699219 23.1875 21.644531 23.125 21.589844 C 23.066406 21.535156 23 21.488281 22.9375 21.445312 L 22.84375 21.382812 C 22.808594 21.371094 22.777344 21.355469 22.746094 21.335938 C 22.714844 21.324219 22.683594 21.316406 22.652344 21.304688 C 22.621094 21.292969 22.59375 21.292969 22.5625 21.285156 C 22.5 21.285156 22.441406 21.285156 22.382812 21.308594 C 22.320312 21.324219 22.261719 21.359375 22.203125 21.402344 C 22.140625 21.445312 22.085938 21.503906 22.03125 21.5625 C 21.980469 21.628906 21.929688 21.695312 21.882812 21.769531 C 21.785156 21.914062 21.707031 22.074219 21.632812 22.242188 C 21.554688 22.40625 21.488281 22.578125 21.425781 22.753906 " fill-opacity="1" fill-rule="nonzero"/><path fill="#3b1c17" d="M 22.644531 23.757812 C 22.644531 23.757812 22.539062 23.59375 22.5 23.3125 C 22.476562 23.171875 22.46875 23 22.519531 22.8125 C 22.566406 22.625 22.699219 22.40625 22.914062 22.296875 C 23.019531 22.246094 23.132812 22.210938 23.234375 22.207031 C 23.34375 22.199219 23.441406 22.214844 23.53125 22.230469 C 23.714844 22.273438 23.863281 22.34375 23.980469 22.417969 C 24.039062 22.453125 24.089844 22.492188 24.136719 22.527344 C 24.179688 22.558594 24.214844 22.59375 24.246094 22.621094 C 24.304688 22.675781 24.335938 22.710938 24.335938 22.710938 C 24.335938 22.710938 24.289062 22.707031 24.210938 22.695312 C 24.136719 22.683594 24.027344 22.667969 23.898438 22.644531 C 23.769531 22.628906 23.628906 22.609375 23.484375 22.601562 C 23.414062 22.601562 23.34375 22.605469 23.28125 22.617188 C 23.214844 22.625 23.15625 22.644531 23.105469 22.671875 C 23.054688 22.695312 23.011719 22.734375 22.972656 22.777344 C 22.933594 22.820312 22.898438 22.875 22.867188 22.9375 C 22.808594 23.0625 22.769531 23.199219 22.734375 23.320312 C 22.679688 23.570312 22.644531 23.757812 22.644531 23.757812 " fill-opacity="1" fill-rule="nonzero"/><path fill="#3b1c17" d="M 36.441406 22.835938 C 36.34375 23.675781 35.789062 24.300781 35.203125 24.234375 C 34.613281 24.164062 34.214844 23.429688 34.308594 22.589844 C 34.40625 21.75 34.960938 21.121094 35.546875 21.191406 C 36.136719 21.261719 36.535156 21.996094 36.441406 22.835938 " fill-opacity="1" fill-rule="nonzero"/><path fill="#3b1c17" d="M 43.84375 23.640625 C 43.746094 24.480469 43.363281 25.125 42.984375 25.082031 C 42.601562 25.039062 42.371094 24.320312 42.464844 23.480469 C 42.5625 22.640625 42.949219 21.996094 43.328125 22.039062 C 43.707031 22.082031 43.9375 22.800781 43.84375 23.640625 " fill-opacity="1" fill-rule="nonzero"/><g clip-path="url(#id8)"><path fill="#71bbc1" d="M 33.875 67.820312 C 28.496094 54.492188 17.894531 43.453125 17.894531 43.453125 C 14.933594 42.785156 12.921875 44.832031 12.921875 44.832031 C 11.871094 50.203125 17.4375 60.277344 22.324219 67.820312 L 33.875 67.820312 " fill-opacity="1" fill-rule="nonzero"/></g><path fill="#86b5b9" d="M 12.933594 44.824219 C 13.011719 44.746094 13.503906 44.28125 14.304688 43.890625 C 13.503906 44.28125 13.011719 44.746094 12.933594 44.824219 " fill-opacity="1" fill-rule="nonzero"/><path fill="#629da7" d="M 12.921875 44.832031 C 12.921875 44.832031 12.925781 44.828125 12.929688 44.824219 C 12.925781 44.828125 12.921875 44.832031 12.921875 44.832031 " fill-opacity="1" fill-rule="nonzero"/><g clip-path="url(#id9)"><path fill="#64a2aa" d="M 25.078125 67.820312 L 22.324219 67.820312 C 17.441406 60.277344 11.871094 50.207031 12.921875 44.832031 C 12.921875 44.832031 12.925781 44.828125 12.929688 44.824219 C 12.929688 44.824219 12.933594 44.824219 12.933594 44.824219 C 13.011719 44.746094 13.503906 44.28125 14.304688 43.890625 C 15.769531 47.804688 20.066406 58.863281 25.078125 67.820312 " fill-opacity="1" fill-rule="nonzero"/></g><path fill="#704a26" d="M 24.050781 20.019531 C 24.050781 20.019531 25.777344 22.554688 27.582031 22.710938 L 26.878906 21.875 C 26.878906 21.875 27.660156 22.257812 28.78125 22.039062 C 28.78125 22.039062 27.011719 18.976562 27.375 17.417969 C 27.375 17.417969 29.40625 15.101562 30.085938 12.832031 C 30.085938 12.832031 31.667969 16.945312 45.574219 11.824219 C 45.574219 11.824219 46.210938 13.796875 46.097656 16.476562 C 46.097656 16.476562 52.710938 10.730469 46.429688 7.929688 C 46.429688 7.929688 43.753906 1.917969 41.023438 1.285156 C 41.023438 1.285156 36.445312 -1.921875 26.539062 5.882812 C 26.539062 5.882812 22.152344 7.066406 21.019531 10.125 C 21.019531 10.125 19.457031 14.992188 22.117188 19.367188 C 22.117188 19.367188 23.261719 19.046875 24.050781 20.019531 " fill-opacity="1" fill-rule="nonzero"/><path fill="#927d68" d="M 46.101562 15.371094 C 46.042969 13.363281 45.613281 11.949219 45.574219 11.832031 C 45.613281 11.949219 46.042969 13.363281 46.101562 15.371094 " fill-opacity="1" fill-rule="nonzero"/><path fill="#603d1f" d="M 27.582031 22.710938 C 25.777344 22.554688 24.050781 20.019531 24.050781 20.019531 C 23.574219 19.433594 22.96875 19.316406 22.5625 19.316406 C 22.503906 19.316406 22.445312 19.320312 22.394531 19.324219 C 22.296875 19.332031 22.21875 19.34375 22.171875 19.355469 C 22.136719 19.363281 22.117188 19.367188 22.117188 19.367188 C 21.121094 17.726562 20.714844 16.019531 20.601562 14.527344 C 20.667969 14.53125 20.734375 14.535156 20.804688 14.535156 C 24.066406 14.535156 29.085938 6.875 29.085938 6.875 C 28.585938 10.664062 32.347656 11.710938 36.640625 11.710938 C 41.898438 11.710938 47.957031 10.144531 47.957031 10.144531 C 48.265625 12.40625 46.589844 14.78125 46.105469 15.410156 C 46.105469 15.398438 46.105469 15.382812 46.101562 15.371094 C 46.042969 13.363281 45.613281 11.949219 45.574219 11.832031 C 45.574219 11.824219 45.574219 11.824219 45.574219 11.824219 C 40.234375 13.789062 36.714844 14.394531 34.402344 14.394531 C 30.6875 14.394531 30.085938 12.832031 30.085938 12.832031 C 29.40625 15.101562 27.375 17.417969 27.375 17.417969 C 27.339844 17.566406 27.324219 17.722656 27.324219 17.886719 C 27.324219 19.519531 28.78125 22.039062 28.78125 22.039062 C 28.535156 22.089844 28.304688 22.109375 28.09375 22.109375 C 27.355469 22.109375 26.878906 21.875 26.878906 21.875 L 27.582031 22.710938 " fill-opacity="1" fill-rule="nonzero"/><path fill="#57341c" d="M 46.109375 15.984375 C 46.105469 16.144531 46.105469 16.308594 46.097656 16.476562 C 46.097656 16.476562 46.148438 16.433594 46.230469 16.355469 L 46.109375 15.984375 " fill-opacity="1" fill-rule="nonzero"/><path fill="#3b1c17" d="M 41.507812 30.601562 C 41.507812 30.601562 41.417969 30.675781 41.246094 30.773438 C 41.160156 30.824219 41.054688 30.882812 40.929688 30.941406 C 40.800781 30.996094 40.660156 31.0625 40.496094 31.113281 C 40.335938 31.175781 40.15625 31.222656 39.964844 31.265625 C 39.773438 31.304688 39.566406 31.347656 39.355469 31.367188 C 39.140625 31.386719 38.917969 31.40625 38.6875 31.394531 C 38.574219 31.386719 38.460938 31.390625 38.347656 31.378906 L 38.003906 31.335938 C 37.773438 31.3125 37.550781 31.246094 37.332031 31.191406 C 37.21875 31.167969 37.113281 31.125 37.007812 31.089844 C 36.90625 31.046875 36.800781 31.007812 36.703125 30.972656 C 36.5 30.894531 36.324219 30.777344 36.148438 30.691406 C 35.96875 30.605469 35.824219 30.484375 35.683594 30.386719 C 35.546875 30.285156 35.417969 30.199219 35.320312 30.097656 C 35.21875 30.003906 35.132812 29.917969 35.0625 29.847656 C 34.921875 29.703125 34.851562 29.621094 34.851562 29.621094 C 34.851562 29.621094 34.957031 29.660156 35.132812 29.742188 C 35.222656 29.785156 35.332031 29.832031 35.449219 29.894531 C 35.507812 29.925781 35.570312 29.957031 35.644531 29.980469 C 35.710938 30.007812 35.785156 30.039062 35.859375 30.070312 C 36.011719 30.128906 36.167969 30.207031 36.34375 30.261719 C 36.519531 30.316406 36.695312 30.390625 36.890625 30.441406 C 37.082031 30.488281 37.273438 30.558594 37.480469 30.597656 C 37.683594 30.628906 37.882812 30.695312 38.09375 30.710938 L 38.40625 30.753906 C 38.507812 30.769531 38.613281 30.773438 38.714844 30.78125 C 38.921875 30.804688 39.128906 30.800781 39.324219 30.808594 C 39.523438 30.8125 39.71875 30.804688 39.902344 30.800781 C 40.082031 30.785156 40.257812 30.78125 40.417969 30.761719 C 40.742188 30.730469 41.011719 30.6875 41.203125 30.65625 C 41.300781 30.640625 41.375 30.628906 41.425781 30.617188 C 41.480469 30.609375 41.507812 30.601562 41.507812 30.601562 " fill-opacity="1" fill-rule="nonzero"/></svg>