<svg xmlns="http://www.w3.org/2000/svg" xmlns:xlink="http://www.w3.org/1999/xlink" width="90" zoomAndPan="magnify" viewBox="0 0 67.5 67.499996" height="90" preserveAspectRatio="xMidYMid meet" version="1.0"><defs><clipPath id="id1"><path d="M 60 46 L 67.003906 46 L 67.003906 51 L 60 51 Z M 60 46 " clip-rule="nonzero"/></clipPath><clipPath id="id2"><path d="M 23 64 L 44 64 L 44 66.304688 L 23 66.304688 Z M 23 64 " clip-rule="nonzero"/></clipPath><clipPath id="id3"><path d="M 21 1.054688 L 27 1.054688 L 27 7 L 21 7 Z M 21 1.054688 " clip-rule="nonzero"/></clipPath></defs><path fill="#ff7443" d="M 60.738281 46.472656 L 6.09375 46.472656 L 6.09375 50.496094 L 60.738281 50.496094 Z M 60.738281 46.472656 " fill-opacity="1" fill-rule="nonzero"/><g clip-path="url(#id1)"><path fill="#41464b" d="M 60.847656 50.808594 L 60.628906 50.1875 L 65.484375 48.484375 L 60.628906 46.785156 L 60.847656 46.164062 L 67.480469 48.484375 Z M 60.847656 50.808594 " fill-opacity="1" fill-rule="nonzero"/></g><path fill="#41464b" d="M 64.4375 47.851562 L 65.101562 47.851562 L 65.101562 49.117188 L 64.4375 49.117188 Z M 64.4375 47.851562 " fill-opacity="1" fill-rule="nonzero"/><path fill="#41464b" d="M 60.738281 50.828125 L 3.222656 50.828125 C 3.039062 50.828125 2.890625 50.679688 2.890625 50.496094 L 2.890625 46.472656 C 2.890625 46.382812 2.925781 46.300781 2.988281 46.238281 C 3.050781 46.175781 3.132812 46.144531 3.222656 46.144531 L 60.738281 46.144531 C 60.921875 46.144531 61.066406 46.292969 61.066406 46.472656 L 61.066406 50.496094 C 61.070312 50.679688 60.921875 50.828125 60.738281 50.828125 Z M 3.550781 50.167969 L 60.40625 50.167969 L 60.40625 46.804688 L 3.550781 46.800781 Z M 3.550781 50.167969 " fill-opacity="1" fill-rule="nonzero"/><path fill="#41464b" d="M 60.738281 49.484375 L 6.09375 49.484375 C 6.007812 49.484375 5.921875 49.449219 5.859375 49.386719 C 5.796875 49.328125 5.761719 49.242188 5.761719 49.15625 L 5.765625 47.8125 C 5.765625 47.632812 5.910156 47.484375 6.09375 47.484375 L 60.738281 47.484375 C 60.921875 47.484375 61.070312 47.632812 61.070312 47.8125 L 61.070312 49.15625 C 61.070312 49.242188 61.035156 49.328125 60.972656 49.390625 C 60.910156 49.449219 60.824219 49.484375 60.738281 49.484375 Z M 6.425781 48.824219 L 60.40625 48.824219 L 60.40625 48.144531 L 6.425781 48.144531 Z M 6.425781 48.824219 " fill-opacity="1" fill-rule="nonzero"/><path fill="#afafaf" d="M 0.351562 49.554688 C 0.351562 49.792969 0.441406 50.035156 0.625 50.21875 C 0.8125 50.40625 1.050781 50.496094 1.292969 50.496094 L 3.222656 50.496094 L 3.222656 46.472656 L 1.292969 46.472656 C 1.054688 46.472656 0.8125 46.566406 0.625 46.75 C 0.441406 46.933594 0.351562 47.175781 0.351562 47.414062 Z M 0.351562 49.554688 " fill-opacity="1" fill-rule="nonzero"/><path fill="#41464b" d="M 3.550781 50.828125 L 1.292969 50.828125 C 0.953125 50.828125 0.632812 50.695312 0.394531 50.453125 C 0.152344 50.214844 0.0195312 49.894531 0.0195312 49.554688 L 0.0195312 47.414062 C 0.0195312 47.074219 0.152344 46.757812 0.390625 46.515625 C 0.632812 46.277344 0.953125 46.144531 1.292969 46.144531 L 3.550781 46.144531 Z M 2.890625 46.800781 L 1.292969 46.800781 C 1.128906 46.800781 0.976562 46.867188 0.859375 46.984375 C 0.746094 47.097656 0.679688 47.253906 0.679688 47.414062 L 0.679688 49.554688 C 0.679688 49.71875 0.746094 49.871094 0.859375 49.988281 C 0.976562 50.101562 1.128906 50.167969 1.292969 50.167969 L 2.890625 50.167969 Z M 2.890625 46.800781 " fill-opacity="1" fill-rule="nonzero"/><path fill="#41464b" d="M 6.425781 50.828125 L 2.890625 50.828125 L 2.890625 46.144531 L 6.425781 46.144531 Z M 3.550781 50.167969 L 5.761719 50.167969 L 5.761719 46.800781 L 3.550781 46.800781 Z M 3.550781 50.167969 " fill-opacity="1" fill-rule="nonzero"/><path fill="#fed65c" d="M 0.351562 42.546875 L 0.351562 35.949219 L 66.480469 35.949219 L 66.480469 42.546875 Z M 0.351562 42.546875 " fill-opacity="1" fill-rule="nonzero"/><path fill="#41464b" d="M 64.855469 35.949219 L 65.515625 35.949219 L 65.515625 37.457031 L 64.855469 37.457031 Z M 64.855469 35.949219 " fill-opacity="1" fill-rule="nonzero"/><path fill="#41464b" d="M 63.558594 35.949219 L 64.21875 35.949219 L 64.21875 37.457031 L 63.558594 37.457031 Z M 63.558594 35.949219 " fill-opacity="1" fill-rule="nonzero"/><path fill="#41464b" d="M 62.261719 35.949219 L 62.921875 35.949219 L 62.921875 37.457031 L 62.261719 37.457031 Z M 62.261719 35.949219 " fill-opacity="1" fill-rule="nonzero"/><path fill="#41464b" d="M 60.964844 35.949219 L 61.625 35.949219 L 61.625 37.457031 L 60.964844 37.457031 Z M 60.964844 35.949219 " fill-opacity="1" fill-rule="nonzero"/><path fill="#41464b" d="M 59.667969 35.949219 L 60.328125 35.949219 L 60.328125 37.457031 L 59.667969 37.457031 Z M 59.667969 35.949219 " fill-opacity="1" fill-rule="nonzero"/><path fill="#41464b" d="M 58.371094 35.949219 L 59.03125 35.949219 L 59.03125 37.457031 L 58.371094 37.457031 Z M 58.371094 35.949219 " fill-opacity="1" fill-rule="nonzero"/><path fill="#41464b" d="M 57.074219 35.949219 L 57.734375 35.949219 L 57.734375 37.457031 L 57.074219 37.457031 Z M 57.074219 35.949219 " fill-opacity="1" fill-rule="nonzero"/><path fill="#41464b" d="M 55.777344 35.949219 L 56.4375 35.949219 L 56.4375 37.457031 L 55.777344 37.457031 Z M 55.777344 35.949219 " fill-opacity="1" fill-rule="nonzero"/><path fill="#41464b" d="M 54.480469 35.949219 L 55.140625 35.949219 L 55.140625 37.457031 L 54.480469 37.457031 Z M 54.480469 35.949219 " fill-opacity="1" fill-rule="nonzero"/><path fill="#41464b" d="M 53.183594 35.949219 L 53.84375 35.949219 L 53.84375 37.457031 L 53.183594 37.457031 Z M 53.183594 35.949219 " fill-opacity="1" fill-rule="nonzero"/><path fill="#41464b" d="M 51.886719 35.949219 L 52.546875 35.949219 L 52.546875 37.457031 L 51.886719 37.457031 Z M 51.886719 35.949219 " fill-opacity="1" fill-rule="nonzero"/><path fill="#41464b" d="M 50.589844 35.949219 L 51.25 35.949219 L 51.25 37.457031 L 50.589844 37.457031 Z M 50.589844 35.949219 " fill-opacity="1" fill-rule="nonzero"/><path fill="#41464b" d="M 49.292969 35.949219 L 49.953125 35.949219 L 49.953125 37.457031 L 49.292969 37.457031 Z M 49.292969 35.949219 " fill-opacity="1" fill-rule="nonzero"/><path fill="#41464b" d="M 47.996094 35.949219 L 48.65625 35.949219 L 48.65625 37.457031 L 47.996094 37.457031 Z M 47.996094 35.949219 " fill-opacity="1" fill-rule="nonzero"/><path fill="#41464b" d="M 46.699219 35.949219 L 47.363281 35.949219 L 47.363281 37.457031 L 46.699219 37.457031 Z M 46.699219 35.949219 " fill-opacity="1" fill-rule="nonzero"/><path fill="#41464b" d="M 45.402344 35.949219 L 46.066406 35.949219 L 46.066406 37.457031 L 45.402344 37.457031 Z M 45.402344 35.949219 " fill-opacity="1" fill-rule="nonzero"/><path fill="#41464b" d="M 44.105469 35.949219 L 44.769531 35.949219 L 44.769531 37.457031 L 44.105469 37.457031 Z M 44.105469 35.949219 " fill-opacity="1" fill-rule="nonzero"/><path fill="#41464b" d="M 42.808594 35.949219 L 43.472656 35.949219 L 43.472656 37.457031 L 42.808594 37.457031 Z M 42.808594 35.949219 " fill-opacity="1" fill-rule="nonzero"/><path fill="#41464b" d="M 41.511719 35.949219 L 42.175781 35.949219 L 42.175781 37.457031 L 41.511719 37.457031 Z M 41.511719 35.949219 " fill-opacity="1" fill-rule="nonzero"/><path fill="#41464b" d="M 40.214844 35.949219 L 40.878906 35.949219 L 40.878906 37.457031 L 40.214844 37.457031 Z M 40.214844 35.949219 " fill-opacity="1" fill-rule="nonzero"/><path fill="#41464b" d="M 38.917969 35.949219 L 39.582031 35.949219 L 39.582031 37.457031 L 38.917969 37.457031 Z M 38.917969 35.949219 " fill-opacity="1" fill-rule="nonzero"/><path fill="#41464b" d="M 37.625 35.949219 L 38.285156 35.949219 L 38.285156 37.457031 L 37.625 37.457031 Z M 37.625 35.949219 " fill-opacity="1" fill-rule="nonzero"/><path fill="#41464b" d="M 36.328125 35.949219 L 36.988281 35.949219 L 36.988281 37.457031 L 36.328125 37.457031 Z M 36.328125 35.949219 " fill-opacity="1" fill-rule="nonzero"/><path fill="#41464b" d="M 35.03125 35.949219 L 35.691406 35.949219 L 35.691406 37.457031 L 35.03125 37.457031 Z M 35.03125 35.949219 " fill-opacity="1" fill-rule="nonzero"/><path fill="#41464b" d="M 33.734375 35.949219 L 34.394531 35.949219 L 34.394531 37.457031 L 33.734375 37.457031 Z M 33.734375 35.949219 " fill-opacity="1" fill-rule="nonzero"/><path fill="#41464b" d="M 32.4375 35.949219 L 33.097656 35.949219 L 33.097656 37.457031 L 32.4375 37.457031 Z M 32.4375 35.949219 " fill-opacity="1" fill-rule="nonzero"/><path fill="#41464b" d="M 31.140625 35.949219 L 31.800781 35.949219 L 31.800781 37.457031 L 31.140625 37.457031 Z M 31.140625 35.949219 " fill-opacity="1" fill-rule="nonzero"/><path fill="#41464b" d="M 29.84375 35.949219 L 30.503906 35.949219 L 30.503906 37.457031 L 29.84375 37.457031 Z M 29.84375 35.949219 " fill-opacity="1" fill-rule="nonzero"/><path fill="#41464b" d="M 28.546875 35.949219 L 29.207031 35.949219 L 29.207031 37.457031 L 28.546875 37.457031 Z M 28.546875 35.949219 " fill-opacity="1" fill-rule="nonzero"/><path fill="#41464b" d="M 27.25 35.949219 L 27.910156 35.949219 L 27.910156 37.457031 L 27.25 37.457031 Z M 27.25 35.949219 " fill-opacity="1" fill-rule="nonzero"/><path fill="#41464b" d="M 25.953125 35.949219 L 26.613281 35.949219 L 26.613281 37.457031 L 25.953125 37.457031 Z M 25.953125 35.949219 " fill-opacity="1" fill-rule="nonzero"/><path fill="#41464b" d="M 24.65625 35.949219 L 25.316406 35.949219 L 25.316406 37.457031 L 24.65625 37.457031 Z M 24.65625 35.949219 " fill-opacity="1" fill-rule="nonzero"/><path fill="#41464b" d="M 23.359375 35.949219 L 24.019531 35.949219 L 24.019531 37.457031 L 23.359375 37.457031 Z M 23.359375 35.949219 " fill-opacity="1" fill-rule="nonzero"/><path fill="#41464b" d="M 22.0625 35.949219 L 22.722656 35.949219 L 22.722656 37.457031 L 22.0625 37.457031 Z M 22.0625 35.949219 " fill-opacity="1" fill-rule="nonzero"/><path fill="#41464b" d="M 20.765625 35.949219 L 21.425781 35.949219 L 21.425781 37.457031 L 20.765625 37.457031 Z M 20.765625 35.949219 " fill-opacity="1" fill-rule="nonzero"/><path fill="#41464b" d="M 19.46875 35.949219 L 20.128906 35.949219 L 20.128906 37.457031 L 19.46875 37.457031 Z M 19.46875 35.949219 " fill-opacity="1" fill-rule="nonzero"/><path fill="#41464b" d="M 18.171875 35.949219 L 18.835938 35.949219 L 18.835938 37.457031 L 18.171875 37.457031 Z M 18.171875 35.949219 " fill-opacity="1" fill-rule="nonzero"/><path fill="#41464b" d="M 16.875 35.949219 L 17.539062 35.949219 L 17.539062 37.457031 L 16.875 37.457031 Z M 16.875 35.949219 " fill-opacity="1" fill-rule="nonzero"/><path fill="#41464b" d="M 15.578125 35.949219 L 16.242188 35.949219 L 16.242188 37.457031 L 15.578125 37.457031 Z M 15.578125 35.949219 " fill-opacity="1" fill-rule="nonzero"/><path fill="#41464b" d="M 14.28125 35.949219 L 14.945312 35.949219 L 14.945312 37.457031 L 14.28125 37.457031 Z M 14.28125 35.949219 " fill-opacity="1" fill-rule="nonzero"/><path fill="#41464b" d="M 12.984375 35.949219 L 13.648438 35.949219 L 13.648438 37.457031 L 12.984375 37.457031 Z M 12.984375 35.949219 " fill-opacity="1" fill-rule="nonzero"/><path fill="#41464b" d="M 11.6875 35.949219 L 12.351562 35.949219 L 12.351562 37.457031 L 11.6875 37.457031 Z M 11.6875 35.949219 " fill-opacity="1" fill-rule="nonzero"/><path fill="#41464b" d="M 10.390625 35.949219 L 11.054688 35.949219 L 11.054688 37.457031 L 10.390625 37.457031 Z M 10.390625 35.949219 " fill-opacity="1" fill-rule="nonzero"/><path fill="#41464b" d="M 9.097656 35.949219 L 9.757812 35.949219 L 9.757812 37.457031 L 9.097656 37.457031 Z M 9.097656 35.949219 " fill-opacity="1" fill-rule="nonzero"/><path fill="#41464b" d="M 7.800781 35.949219 L 8.460938 35.949219 L 8.460938 37.457031 L 7.800781 37.457031 Z M 7.800781 35.949219 " fill-opacity="1" fill-rule="nonzero"/><path fill="#41464b" d="M 6.503906 35.949219 L 7.164062 35.949219 L 7.164062 37.457031 L 6.503906 37.457031 Z M 6.503906 35.949219 " fill-opacity="1" fill-rule="nonzero"/><path fill="#41464b" d="M 5.207031 35.949219 L 5.867188 35.949219 L 5.867188 37.457031 L 5.207031 37.457031 Z M 5.207031 35.949219 " fill-opacity="1" fill-rule="nonzero"/><path fill="#41464b" d="M 3.910156 35.949219 L 4.570312 35.949219 L 4.570312 37.457031 L 3.910156 37.457031 Z M 3.910156 35.949219 " fill-opacity="1" fill-rule="nonzero"/><path fill="#41464b" d="M 2.613281 35.949219 L 3.273438 35.949219 L 3.273438 37.457031 L 2.613281 37.457031 Z M 2.613281 35.949219 " fill-opacity="1" fill-rule="nonzero"/><path fill="#41464b" d="M 1.316406 35.949219 L 1.976562 35.949219 L 1.976562 37.457031 L 1.316406 37.457031 Z M 1.316406 35.949219 " fill-opacity="1" fill-rule="nonzero"/><path fill="#ffffff" d="M 55.457031 20.425781 C 55.03125 19.992188 54.46875 19.777344 53.914062 19.777344 L 12.917969 19.777344 C 12.363281 19.777344 11.804688 19.992188 11.378906 20.425781 C 10.953125 20.855469 10.742188 21.421875 10.742188 21.984375 L 10.742188 50.496094 L 56.089844 50.496094 L 56.089844 21.984375 C 56.089844 21.421875 55.882812 20.855469 55.457031 20.425781 Z M 55.457031 20.425781 " fill-opacity="1" fill-rule="nonzero"/><path fill="#41464b" d="M 56.421875 50.828125 L 10.410156 50.828125 L 10.410156 21.984375 C 10.410156 21.308594 10.671875 20.671875 11.144531 20.191406 C 11.617188 19.710938 12.246094 19.449219 12.917969 19.449219 L 17.355469 19.449219 L 17.355469 20.109375 L 12.917969 20.109375 C 12.425781 20.109375 11.964844 20.300781 11.617188 20.65625 C 11.265625 21.011719 11.074219 21.484375 11.074219 21.984375 L 11.074219 50.167969 L 55.757812 50.167969 L 55.757812 21.984375 C 55.757812 21.480469 55.570312 21.007812 55.222656 20.65625 C 54.875 20.300781 54.40625 20.109375 53.914062 20.109375 L 49.476562 20.109375 L 49.476562 19.449219 L 53.914062 19.449219 C 54.585938 19.449219 55.21875 19.710938 55.695312 20.191406 C 56.164062 20.671875 56.421875 21.308594 56.421875 21.984375 Z M 56.421875 50.828125 " fill-opacity="1" fill-rule="nonzero"/><path fill="#41464b" d="M 53.914062 55.976562 L 12.917969 55.976562 C 12.25 55.976562 11.617188 55.710938 11.144531 55.230469 C 10.671875 54.753906 10.410156 54.117188 10.410156 53.4375 L 10.410156 50.167969 L 56.421875 50.167969 L 56.421875 53.4375 C 56.421875 54.117188 56.164062 54.753906 55.695312 55.230469 C 55.21875 55.710938 54.585938 55.976562 53.914062 55.976562 Z M 11.074219 50.828125 L 11.074219 53.4375 C 11.074219 53.941406 11.265625 54.414062 11.613281 54.765625 C 11.964844 55.121094 12.429688 55.316406 12.921875 55.316406 L 53.914062 55.316406 C 54.40625 55.316406 54.871094 55.121094 55.222656 54.765625 C 55.570312 54.414062 55.757812 53.945312 55.757812 53.4375 L 55.757812 50.828125 Z M 11.074219 50.828125 " fill-opacity="1" fill-rule="nonzero"/><path fill="#41464b" d="M 40.5 64.890625 L 26.332031 64.890625 L 27.5 55.316406 L 39.332031 55.316406 Z M 27.078125 64.230469 L 39.753906 64.230469 L 38.746094 55.976562 L 28.085938 55.976562 Z M 27.078125 64.230469 " fill-opacity="1" fill-rule="nonzero"/><path fill="#41464b" d="M 31.355469 52.742188 L 35.476562 52.742188 L 35.476562 53.402344 L 31.355469 53.402344 Z M 31.355469 52.742188 " fill-opacity="1" fill-rule="nonzero"/><g clip-path="url(#id2)"><path fill="#41464b" d="M 43.4375 66.292969 L 42.773438 66.292969 L 42.773438 64.890625 L 24.058594 64.890625 L 24.058594 66.292969 L 23.394531 66.292969 L 23.394531 64.230469 L 43.4375 64.230469 Z M 43.4375 66.292969 " fill-opacity="1" fill-rule="nonzero"/></g><path fill="#4cbed8" d="M 49.476562 22.691406 L 53.21875 22.691406 L 53.21875 47.582031 L 49.476562 47.582031 Z M 49.476562 22.691406 " fill-opacity="1" fill-rule="nonzero"/><path fill="#4cbed8" d="M 13.613281 22.691406 L 17.355469 22.691406 L 17.355469 47.582031 L 13.613281 47.582031 Z M 13.613281 22.691406 " fill-opacity="1" fill-rule="nonzero"/><path fill="#ff7443" d="M 17.355469 25.601562 L 49.476562 25.601562 L 49.476562 33.144531 L 17.355469 33.144531 Z M 17.355469 25.601562 " fill-opacity="1" fill-rule="nonzero"/><path fill="#ffffff" d="M 22.316406 31.019531 L 20.667969 29.371094 L 22.316406 27.726562 L 22.785156 28.191406 L 21.601562 29.371094 L 22.785156 30.554688 Z M 22.316406 31.019531 " fill-opacity="1" fill-rule="nonzero"/><path fill="#ffffff" d="M 44.515625 31.019531 L 44.046875 30.554688 L 45.230469 29.371094 L 44.046875 28.191406 L 44.515625 27.726562 L 46.164062 29.371094 Z M 44.515625 31.019531 " fill-opacity="1" fill-rule="nonzero"/><path fill="#afafaf" d="M 17.355469 10.210938 L 49.476562 10.210938 L 49.476562 13.980469 L 17.355469 13.980469 Z M 17.355469 10.210938 " fill-opacity="1" fill-rule="nonzero"/><path fill="#41464b" d="M 49.808594 47.582031 L 49.144531 47.582031 L 49.144531 10.542969 L 17.6875 10.542969 L 17.6875 47.582031 L 17.023438 47.582031 L 17.023438 9.882812 L 49.808594 9.882812 Z M 49.808594 47.582031 " fill-opacity="1" fill-rule="nonzero"/><path fill="#41464b" d="M 42.148438 20.109375 L 20.804688 20.109375 L 20.804688 16.621094 L 42.148438 16.621094 Z M 21.464844 19.449219 L 41.488281 19.449219 L 41.488281 17.28125 L 21.464844 17.28125 Z M 21.464844 19.449219 " fill-opacity="1" fill-rule="nonzero"/><path fill="#41464b" d="M 46.027344 20.109375 L 41.488281 20.109375 L 41.488281 16.621094 L 46.027344 16.621094 Z M 42.148438 19.449219 L 45.367188 19.449219 L 45.367188 17.28125 L 42.148438 17.28125 Z M 42.148438 19.449219 " fill-opacity="1" fill-rule="nonzero"/><path fill="#41464b" d="M 21.132812 22.359375 L 25.011719 22.359375 L 25.011719 23.019531 L 21.132812 23.019531 Z M 21.132812 22.359375 " fill-opacity="1" fill-rule="nonzero"/><path fill="#41464b" d="M 26.304688 22.359375 L 30.183594 22.359375 L 30.183594 23.019531 L 26.304688 23.019531 Z M 26.304688 22.359375 " fill-opacity="1" fill-rule="nonzero"/><path fill="#41464b" d="M 31.476562 22.359375 L 35.355469 22.359375 L 35.355469 23.019531 L 31.476562 23.019531 Z M 31.476562 22.359375 " fill-opacity="1" fill-rule="nonzero"/><path fill="#41464b" d="M 36.648438 22.359375 L 40.527344 22.359375 L 40.527344 23.019531 L 36.648438 23.019531 Z M 36.648438 22.359375 " fill-opacity="1" fill-rule="nonzero"/><path fill="#41464b" d="M 41.820312 22.359375 L 45.699219 22.359375 L 45.699219 23.019531 L 41.820312 23.019531 Z M 41.820312 22.359375 " fill-opacity="1" fill-rule="nonzero"/><path fill="#41464b" d="M 21.132812 11.765625 L 21.796875 11.765625 L 21.796875 12.425781 L 21.132812 12.425781 Z M 21.132812 11.765625 " fill-opacity="1" fill-rule="nonzero"/><path fill="#41464b" d="M 22.457031 11.765625 L 23.117188 11.765625 L 23.117188 12.425781 L 22.457031 12.425781 Z M 22.457031 11.765625 " fill-opacity="1" fill-rule="nonzero"/><path fill="#41464b" d="M 23.78125 11.765625 L 24.441406 11.765625 L 24.441406 12.425781 L 23.78125 12.425781 Z M 23.78125 11.765625 " fill-opacity="1" fill-rule="nonzero"/><path fill="#fed65c" d="M 21.132812 36.054688 L 26.183594 36.054688 L 26.183594 41.09375 L 21.132812 41.09375 Z M 21.132812 36.054688 " fill-opacity="1" fill-rule="nonzero"/><path fill="#ff7443" d="M 27.640625 36.054688 L 32.6875 36.054688 L 32.6875 41.09375 L 27.640625 41.09375 Z M 27.640625 36.054688 " fill-opacity="1" fill-rule="nonzero"/><path fill="#afafaf" d="M 34.144531 36.054688 L 39.191406 36.054688 L 39.191406 41.09375 L 34.144531 41.09375 Z M 34.144531 36.054688 " fill-opacity="1" fill-rule="nonzero"/><path fill="#ff7443" d="M 21.132812 42.546875 L 26.183594 42.546875 L 26.183594 47.582031 L 21.132812 47.582031 Z M 21.132812 42.546875 " fill-opacity="1" fill-rule="nonzero"/><path fill="#fed65c" d="M 34.144531 42.546875 L 39.191406 42.546875 L 39.191406 47.582031 L 34.144531 47.582031 Z M 34.144531 42.546875 " fill-opacity="1" fill-rule="nonzero"/><path fill="#fed65c" d="M 40.648438 42.546875 L 45.699219 42.546875 L 45.699219 47.582031 L 40.648438 47.582031 Z M 40.648438 42.546875 " fill-opacity="1" fill-rule="nonzero"/><path fill="#41464b" d="M 40.648438 40.433594 L 41.3125 40.433594 L 41.3125 41.09375 L 40.648438 41.09375 Z M 40.648438 40.433594 " fill-opacity="1" fill-rule="nonzero"/><path fill="#41464b" d="M 41.3125 39.6875 L 40.648438 39.6875 L 40.648438 38.945312 L 41.3125 38.945312 Z M 41.3125 38.203125 L 40.648438 38.203125 L 40.648438 37.457031 L 41.3125 37.457031 Z M 41.3125 38.203125 " fill-opacity="1" fill-rule="nonzero"/><path fill="#41464b" d="M 40.648438 36.054688 L 41.3125 36.054688 L 41.3125 36.714844 L 40.648438 36.714844 Z M 40.648438 36.054688 " fill-opacity="1" fill-rule="nonzero"/><path fill="#41464b" d="M 44.292969 36.714844 L 43.546875 36.714844 L 43.546875 36.054688 L 44.292969 36.054688 Z M 42.800781 36.714844 L 42.054688 36.714844 L 42.054688 36.054688 L 42.800781 36.054688 Z M 42.800781 36.714844 " fill-opacity="1" fill-rule="nonzero"/><path fill="#41464b" d="M 45.035156 36.054688 L 45.699219 36.054688 L 45.699219 36.714844 L 45.035156 36.714844 Z M 45.035156 36.054688 " fill-opacity="1" fill-rule="nonzero"/><path fill="#41464b" d="M 45.699219 39.6875 L 45.035156 39.6875 L 45.035156 38.945312 L 45.699219 38.945312 Z M 45.699219 38.203125 L 45.035156 38.203125 L 45.035156 37.457031 L 45.699219 37.457031 Z M 45.699219 38.203125 " fill-opacity="1" fill-rule="nonzero"/><path fill="#41464b" d="M 45.035156 40.433594 L 45.699219 40.433594 L 45.699219 41.09375 L 45.035156 41.09375 Z M 45.035156 40.433594 " fill-opacity="1" fill-rule="nonzero"/><path fill="#41464b" d="M 44.292969 41.09375 L 43.546875 41.09375 L 43.546875 40.433594 L 44.292969 40.433594 Z M 42.800781 41.09375 L 42.054688 41.09375 L 42.054688 40.433594 L 42.800781 40.433594 Z M 42.800781 41.09375 " fill-opacity="1" fill-rule="nonzero"/><path fill="#41464b" d="M 32.6875 47.582031 L 27.640625 47.582031 L 27.640625 42.546875 L 32.6875 42.546875 Z M 28.300781 46.925781 L 32.027344 46.925781 L 32.027344 43.207031 L 28.300781 43.207031 Z M 28.300781 46.925781 " fill-opacity="1" fill-rule="nonzero"/><path fill="#41464b" d="M 32.125 42.644531 L 32.59375 43.109375 L 28.207031 47.488281 L 27.738281 47.019531 Z M 32.125 42.644531 " fill-opacity="1" fill-rule="nonzero"/><path fill="#41464b" d="M 28.203125 42.644531 L 32.589844 47.019531 L 32.121094 47.484375 L 27.734375 43.109375 Z M 28.203125 42.644531 " fill-opacity="1" fill-rule="nonzero"/><path fill="#ff7443" d="M 50.597656 54.230469 L 64.769531 54.230469 L 64.769531 63.320312 L 50.597656 63.320312 Z M 50.597656 54.230469 " fill-opacity="1" fill-rule="nonzero"/><path fill="#ffffff" d="M 56.570312 57.492188 L 58.796875 58.777344 L 56.570312 60.058594 Z M 56.570312 57.492188 " fill-opacity="1" fill-rule="nonzero"/><path fill="#41464b" d="M 50.597656 62.992188 L 64.769531 62.992188 L 64.769531 63.652344 L 50.597656 63.652344 Z M 50.597656 62.992188 " fill-opacity="1" fill-rule="nonzero"/><path fill="#fed65c" d="M 6.226562 3.203125 C 2.980469 3.203125 0.351562 5.828125 0.351562 9.066406 C 0.351562 10.84375 1.140625 12.4375 2.394531 13.511719 C 2.40625 13.523438 2.421875 13.535156 2.433594 13.546875 C 3.351562 14.382812 3.929688 15.582031 3.929688 16.921875 L 3.929688 17.433594 L 8.519531 17.433594 L 8.519531 16.921875 C 8.519531 15.582031 9.097656 14.382812 10.015625 13.546875 C 10.03125 13.535156 10.042969 13.523438 10.058594 13.511719 C 11.308594 12.4375 12.101562 10.84375 12.101562 9.066406 C 12.101562 5.828125 9.472656 3.203125 6.226562 3.203125 Z M 6.226562 3.203125 " fill-opacity="1" fill-rule="nonzero"/><path fill="#afafaf" d="M 3.929688 17.433594 L 8.523438 17.433594 L 8.523438 19.777344 L 3.929688 19.777344 Z M 3.929688 17.433594 " fill-opacity="1" fill-rule="nonzero"/><path fill="#41464b" d="M 3.371094 17.101562 L 9.082031 17.101562 L 9.082031 17.761719 L 3.371094 17.761719 Z M 3.371094 17.101562 " fill-opacity="1" fill-rule="nonzero"/><path fill="#41464b" d="M 3.371094 19.449219 L 9.082031 19.449219 L 9.082031 20.109375 L 3.371094 20.109375 Z M 3.371094 19.449219 " fill-opacity="1" fill-rule="nonzero"/><path fill="#41464b" d="M 3.371094 18.273438 L 9.082031 18.273438 L 9.082031 18.933594 L 3.371094 18.933594 Z M 3.371094 18.273438 " fill-opacity="1" fill-rule="nonzero"/><path fill="#41464b" d="M 4.964844 20.621094 L 7.484375 20.621094 L 7.484375 21.28125 L 4.964844 21.28125 Z M 4.964844 20.621094 " fill-opacity="1" fill-rule="nonzero"/><path fill="#ffffff" d="M 2.027344 9.066406 C 2.027344 11.382812 3.90625 13.253906 6.226562 13.253906 C 8.542969 13.253906 10.421875 11.382812 10.421875 9.066406 C 10.421875 6.753906 8.542969 4.878906 6.226562 4.878906 C 3.90625 4.878906 2.027344 6.753906 2.027344 9.066406 Z M 2.027344 9.066406 " fill-opacity="1" fill-rule="nonzero"/><path fill="#41464b" d="M 5.308594 9.066406 L 5.96875 9.066406 L 5.96875 17.433594 L 5.308594 17.433594 Z M 5.308594 9.066406 " fill-opacity="1" fill-rule="nonzero"/><path fill="#41464b" d="M 6.484375 9.066406 L 7.144531 9.066406 L 7.144531 17.433594 L 6.484375 17.433594 Z M 6.484375 9.066406 " fill-opacity="1" fill-rule="nonzero"/><path fill="#41464b" d="M 4.546875 8.738281 L 7.90625 8.738281 L 7.90625 9.398438 L 4.546875 9.398438 Z M 4.546875 8.738281 " fill-opacity="1" fill-rule="nonzero"/><path fill="#4cbed8" d="M 9.808594 58.109375 C 11.832031 58.109375 13.476562 59.746094 13.476562 61.769531 C 13.476562 63.789062 11.832031 65.425781 9.808594 65.425781 C 7.78125 65.425781 6.140625 63.789062 6.140625 61.769531 C 6.140625 59.746094 7.78125 58.109375 9.808594 58.109375 Z M 9.808594 58.109375 " fill-opacity="1" fill-rule="nonzero"/><path fill="#41464b" d="M 6.515625 62.144531 L 6.507812 62.144531 C 6.269531 62.144531 6.03125 62.121094 5.800781 62.074219 L 5.925781 61.429688 C 6.117188 61.464844 6.3125 61.484375 6.507812 61.484375 Z M 7.230469 62.074219 L 7.101562 61.425781 C 7.296875 61.386719 7.484375 61.328125 7.667969 61.253906 L 7.921875 61.863281 C 7.699219 61.957031 7.46875 62.027344 7.230469 62.074219 Z M 5.109375 61.867188 C 4.886719 61.777344 4.671875 61.664062 4.472656 61.53125 L 4.839844 60.980469 C 5.003906 61.089844 5.179688 61.183594 5.359375 61.257812 Z M 8.558594 61.523438 L 8.1875 60.976562 C 8.351562 60.867188 8.503906 60.738281 8.644531 60.601562 L 9.113281 61.066406 C 8.941406 61.234375 8.753906 61.390625 8.558594 61.523438 Z M 3.914062 61.078125 C 3.746094 60.90625 3.589844 60.722656 3.457031 60.523438 L 4.003906 60.152344 C 4.117188 60.316406 4.242188 60.46875 4.382812 60.609375 Z M 9.570312 60.507812 L 9.019531 60.144531 C 9.128906 59.980469 9.222656 59.804688 9.296875 59.625 L 9.90625 59.875 C 9.816406 60.097656 9.703125 60.308594 9.570312 60.507812 Z M 3.113281 59.890625 C 3.023438 59.667969 2.953125 59.4375 2.902344 59.203125 L 3.550781 59.070312 C 3.589844 59.265625 3.648438 59.453125 3.726562 59.636719 Z M 10.117188 59.1875 L 9.464844 59.058594 C 9.503906 58.867188 9.523438 58.671875 9.523438 58.476562 L 10.183594 58.472656 L 10.183594 58.476562 C 10.183594 58.714844 10.160156 58.953125 10.117188 59.1875 Z M 2.832031 58.484375 L 2.832031 58.476562 C 2.832031 58.238281 2.855469 58 2.898438 57.773438 L 3.546875 57.898438 C 3.511719 58.085938 3.492188 58.28125 3.492188 58.476562 Z M 9.464844 57.886719 C 9.425781 57.691406 9.371094 57.503906 9.292969 57.320312 L 9.90625 57.070312 C 9.996094 57.289062 10.066406 57.523438 10.113281 57.757812 Z M 3.71875 57.332031 L 3.105469 57.082031 C 3.195312 56.863281 3.3125 56.648438 3.445312 56.449219 L 3.996094 56.8125 C 3.886719 56.976562 3.792969 57.152344 3.71875 57.332031 Z M 9.015625 56.800781 C 8.90625 56.640625 8.777344 56.484375 8.640625 56.347656 L 9.105469 55.878906 C 9.277344 56.050781 9.429688 56.234375 9.5625 56.433594 Z M 4.367188 56.355469 L 3.898438 55.890625 C 4.066406 55.722656 4.253906 55.566406 4.453125 55.433594 L 4.824219 55.980469 C 4.660156 56.089844 4.507812 56.214844 4.367188 56.355469 Z M 8.183594 55.972656 C 8.019531 55.863281 7.84375 55.769531 7.660156 55.695312 L 7.914062 55.085938 C 8.136719 55.175781 8.351562 55.289062 8.550781 55.425781 Z M 5.34375 55.699219 L 5.085938 55.089844 C 5.308594 55 5.539062 54.925781 5.777344 54.878906 L 5.90625 55.527344 C 5.714844 55.566406 5.523438 55.625 5.34375 55.699219 Z M 7.097656 55.523438 C 6.90625 55.484375 6.707031 55.46875 6.507812 55.46875 L 6.496094 54.808594 L 6.507812 54.808594 C 6.75 54.808594 6.988281 54.832031 7.226562 54.875 Z M 7.097656 55.523438 " fill-opacity="1" fill-rule="nonzero"/><path fill="#ff7443" d="M 17.375 59.832031 C 17.375 60.007812 17.339844 60.175781 17.273438 60.339844 C 17.207031 60.5 17.109375 60.644531 16.988281 60.765625 C 16.863281 60.890625 16.71875 60.984375 16.558594 61.050781 C 16.394531 61.121094 16.226562 61.152344 16.050781 61.152344 C 15.875 61.152344 15.707031 61.121094 15.546875 61.050781 C 15.382812 60.984375 15.242188 60.890625 15.117188 60.765625 C 14.992188 60.644531 14.898438 60.5 14.828125 60.339844 C 14.761719 60.175781 14.730469 60.007812 14.730469 59.832031 C 14.730469 59.660156 14.761719 59.488281 14.828125 59.328125 C 14.898438 59.167969 14.992188 59.023438 15.117188 58.902344 C 15.242188 58.777344 15.382812 58.679688 15.546875 58.613281 C 15.707031 58.546875 15.875 58.515625 16.050781 58.515625 C 16.226562 58.515625 16.394531 58.546875 16.558594 58.613281 C 16.71875 58.679688 16.863281 58.777344 16.988281 58.902344 C 17.109375 59.023438 17.207031 59.167969 17.273438 59.328125 C 17.339844 59.488281 17.375 59.660156 17.375 59.832031 Z M 17.375 59.832031 " fill-opacity="1" fill-rule="nonzero"/><path fill="#4cbed8" d="M 51.460938 6.933594 C 51.460938 4.417969 53.507812 2.375 56.035156 2.375 C 56.960938 2.375 57.824219 2.652344 58.546875 3.125 C 57.304688 3.941406 56.492188 5.34375 56.492188 6.933594 C 56.492188 7.246094 56.519531 7.542969 56.578125 7.832031 C 55.300781 8.445312 54.351562 9.628906 54.0625 11.054688 C 52.523438 10.316406 51.460938 8.753906 51.460938 6.933594 Z M 51.460938 6.933594 " fill-opacity="1" fill-rule="nonzero"/><path fill="#ff7443" d="M 58.546875 3.125 C 59.269531 2.648438 60.132812 2.375 61.058594 2.375 C 63.585938 2.375 65.632812 4.417969 65.632812 6.933594 C 65.632812 8.753906 64.566406 10.316406 63.027344 11.054688 C 62.742188 9.628906 61.796875 8.445312 60.515625 7.832031 C 60.574219 7.542969 60.601562 7.246094 60.601562 6.933594 C 60.601562 5.34375 59.785156 3.941406 58.546875 3.125 Z M 58.546875 3.125 " fill-opacity="1" fill-rule="nonzero"/><path fill="#afafaf" d="M 53.972656 11.953125 C 53.972656 11.644531 54.007812 11.347656 54.0625 11.054688 C 54.660156 11.335938 55.328125 11.5 56.035156 11.5 C 56.960938 11.5 57.824219 11.222656 58.546875 10.742188 C 59.269531 11.222656 60.132812 11.5 61.058594 11.5 C 61.765625 11.5 62.433594 11.335938 63.027344 11.054688 C 63.085938 11.347656 63.117188 11.644531 63.117188 11.953125 C 63.117188 14.472656 61.070312 16.515625 58.546875 16.515625 C 56.019531 16.515625 53.972656 14.472656 53.972656 11.953125 Z M 53.972656 11.953125 " fill-opacity="1" fill-rule="nonzero"/><path fill="#41464b" d="M 61.058594 11.828125 C 60.167969 11.828125 59.304688 11.589844 58.546875 11.132812 C 57.789062 11.589844 56.925781 11.828125 56.03125 11.828125 C 55.300781 11.828125 54.589844 11.667969 53.921875 11.355469 L 53.6875 11.246094 L 53.738281 10.992188 C 54.023438 9.574219 54.941406 8.34375 56.210938 7.648438 C 56.175781 7.417969 56.160156 7.183594 56.160156 6.933594 C 56.160156 5.289062 56.984375 3.761719 58.363281 2.851562 L 58.546875 2.730469 L 58.730469 2.851562 C 60.109375 3.761719 60.933594 5.289062 60.933594 6.933594 C 60.933594 7.183594 60.917969 7.417969 60.882812 7.652344 C 62.152344 8.34375 63.070312 9.574219 63.351562 10.992188 L 63.402344 11.246094 L 63.171875 11.355469 C 62.503906 11.667969 61.792969 11.828125 61.058594 11.828125 Z M 59.144531 10.710938 C 59.734375 11.011719 60.386719 11.167969 61.058594 11.167969 C 61.605469 11.167969 62.136719 11.066406 62.644531 10.863281 C 62.359375 9.808594 61.667969 8.894531 60.730469 8.324219 C 60.453125 9.257812 59.898438 10.09375 59.144531 10.710938 Z M 54.449219 10.863281 C 54.957031 11.066406 55.488281 11.167969 56.035156 11.167969 C 56.703125 11.167969 57.359375 11.011719 57.945312 10.710938 C 57.195312 10.097656 56.640625 9.257812 56.359375 8.324219 C 55.421875 8.894531 54.730469 9.808594 54.449219 10.863281 Z M 56.964844 8.023438 C 57.210938 8.953125 57.773438 9.777344 58.546875 10.34375 C 59.320312 9.777344 59.882812 8.953125 60.128906 8.023438 C 59.117188 7.621094 57.976562 7.621094 56.964844 8.023438 Z M 58.546875 7.058594 C 59.132812 7.058594 59.703125 7.164062 60.25 7.363281 C 60.265625 7.226562 60.273438 7.082031 60.273438 6.933594 C 60.273438 5.582031 59.632812 4.324219 58.546875 3.527344 C 57.460938 4.324219 56.820312 5.582031 56.820312 6.933594 C 56.820312 7.082031 56.828125 7.226562 56.839844 7.363281 C 57.390625 7.164062 57.960938 7.058594 58.546875 7.058594 Z M 58.546875 7.058594 " fill-opacity="1" fill-rule="nonzero"/><path fill="#41464b" d="M 3.910156 27.015625 L 4.570312 27.015625 L 4.570312 30.777344 L 3.910156 30.777344 Z M 3.910156 27.015625 " fill-opacity="1" fill-rule="nonzero"/><path fill="#41464b" d="M 3.296875 30.449219 L 5.183594 30.449219 L 5.183594 31.109375 L 3.296875 31.109375 Z M 3.296875 30.449219 " fill-opacity="1" fill-rule="nonzero"/><path fill="#41464b" d="M 6.457031 27.957031 L 5.792969 27.957031 L 5.792969 27.347656 L 2.683594 27.347656 L 2.683594 27.957031 L 2.023438 27.957031 L 2.023438 26.6875 L 6.457031 26.6875 Z M 6.457031 27.957031 " fill-opacity="1" fill-rule="nonzero"/><path fill="#41464b" d="M 7.714844 26.597656 L 7.050781 26.597656 L 7.050781 26.089844 L 6.542969 26.089844 L 6.542969 25.429688 L 7.714844 25.429688 Z M 7.714844 26.597656 " fill-opacity="1" fill-rule="nonzero"/><path fill="#41464b" d="M 1.425781 26.597656 L 0.765625 26.597656 L 0.765625 25.429688 L 1.933594 25.429688 L 1.933594 26.089844 L 1.425781 26.089844 Z M 1.425781 26.597656 " fill-opacity="1" fill-rule="nonzero"/><path fill="#41464b" d="M 7.714844 32.363281 L 6.542969 32.363281 L 6.542969 31.703125 L 7.050781 31.703125 L 7.050781 31.199219 L 7.714844 31.199219 Z M 7.714844 32.363281 " fill-opacity="1" fill-rule="nonzero"/><path fill="#41464b" d="M 1.933594 32.363281 L 0.765625 32.363281 L 0.765625 31.199219 L 1.425781 31.199219 L 1.425781 31.703125 L 1.933594 31.703125 Z M 1.933594 32.363281 " fill-opacity="1" fill-rule="nonzero"/><path fill="#41464b" d="M 64.890625 22.707031 L 65.222656 22.707031 L 65.222656 23.367188 L 64.890625 23.367188 Z M 64.890625 22.707031 " fill-opacity="1" fill-rule="nonzero"/><path fill="#41464b" d="M 64.265625 23.367188 L 63.640625 23.367188 L 63.640625 22.707031 L 64.265625 22.707031 Z M 63.015625 23.367188 L 62.390625 23.367188 L 62.390625 22.707031 L 63.015625 22.707031 Z M 61.765625 23.367188 L 61.140625 23.367188 L 61.140625 22.707031 L 61.765625 22.707031 Z M 61.765625 23.367188 " fill-opacity="1" fill-rule="nonzero"/><path fill="#41464b" d="M 60.183594 22.707031 L 60.515625 22.707031 L 60.515625 23.367188 L 60.183594 23.367188 Z M 60.183594 22.707031 " fill-opacity="1" fill-rule="nonzero"/><path fill="#41464b" d="M 64.890625 28.992188 L 65.222656 28.992188 L 65.222656 29.652344 L 64.890625 29.652344 Z M 64.890625 28.992188 " fill-opacity="1" fill-rule="nonzero"/><path fill="#41464b" d="M 64.265625 29.652344 L 63.640625 29.652344 L 63.640625 28.992188 L 64.265625 28.992188 Z M 63.015625 29.652344 L 62.390625 29.652344 L 62.390625 28.992188 L 63.015625 28.992188 Z M 61.765625 29.652344 L 61.140625 29.652344 L 61.140625 28.992188 L 61.765625 28.992188 Z M 61.765625 29.652344 " fill-opacity="1" fill-rule="nonzero"/><path fill="#41464b" d="M 60.183594 28.992188 L 60.515625 28.992188 L 60.515625 29.652344 L 60.183594 29.652344 Z M 60.183594 28.992188 " fill-opacity="1" fill-rule="nonzero"/><path fill="#41464b" d="M 59.222656 28.363281 L 59.886719 28.363281 L 59.886719 28.691406 L 59.222656 28.691406 Z M 59.222656 28.363281 " fill-opacity="1" fill-rule="nonzero"/><path fill="#41464b" d="M 59.886719 27.738281 L 59.222656 27.738281 L 59.222656 27.117188 L 59.886719 27.117188 Z M 59.886719 26.492188 L 59.222656 26.492188 L 59.222656 25.867188 L 59.886719 25.867188 Z M 59.886719 25.242188 L 59.222656 25.242188 L 59.222656 24.621094 L 59.886719 24.621094 Z M 59.886719 25.242188 " fill-opacity="1" fill-rule="nonzero"/><path fill="#41464b" d="M 59.222656 23.664062 L 59.886719 23.664062 L 59.886719 23.996094 L 59.222656 23.996094 Z M 59.222656 23.664062 " fill-opacity="1" fill-rule="nonzero"/><path fill="#41464b" d="M 65.523438 28.363281 L 66.183594 28.363281 L 66.183594 28.691406 L 65.523438 28.691406 Z M 65.523438 28.363281 " fill-opacity="1" fill-rule="nonzero"/><path fill="#41464b" d="M 66.183594 27.738281 L 65.523438 27.738281 L 65.523438 27.117188 L 66.183594 27.117188 Z M 66.183594 26.492188 L 65.523438 26.492188 L 65.523438 25.867188 L 66.183594 25.867188 Z M 66.183594 25.242188 L 65.523438 25.242188 L 65.523438 24.621094 L 66.183594 24.621094 Z M 66.183594 25.242188 " fill-opacity="1" fill-rule="nonzero"/><path fill="#41464b" d="M 65.523438 23.664062 L 66.183594 23.664062 L 66.183594 23.996094 L 65.523438 23.996094 Z M 65.523438 23.664062 " fill-opacity="1" fill-rule="nonzero"/><path fill="#41464b" d="M 60.515625 23.996094 L 58.59375 23.996094 L 58.59375 22.078125 L 60.515625 22.078125 Z M 59.253906 23.335938 L 59.851562 23.335938 L 59.851562 22.738281 L 59.253906 22.738281 Z M 59.253906 23.335938 " fill-opacity="1" fill-rule="nonzero"/><path fill="#41464b" d="M 66.8125 23.996094 L 64.890625 23.996094 L 64.890625 22.078125 L 66.8125 22.078125 Z M 65.550781 23.335938 L 66.152344 23.335938 L 66.152344 22.738281 L 65.550781 22.738281 Z M 65.550781 23.335938 " fill-opacity="1" fill-rule="nonzero"/><path fill="#41464b" d="M 60.515625 30.28125 L 58.59375 30.28125 L 58.59375 28.363281 L 60.515625 28.363281 Z M 59.253906 29.621094 L 59.851562 29.621094 L 59.851562 29.023438 L 59.253906 29.023438 Z M 59.253906 29.621094 " fill-opacity="1" fill-rule="nonzero"/><path fill="#41464b" d="M 66.8125 30.28125 L 64.890625 30.28125 L 64.890625 28.363281 L 66.8125 28.363281 Z M 65.550781 29.621094 L 66.152344 29.621094 L 66.152344 29.023438 L 65.550781 29.023438 Z M 65.550781 29.621094 " fill-opacity="1" fill-rule="nonzero"/><path fill="#afafaf" d="M 61.175781 24.652344 L 64.234375 24.652344 L 64.234375 27.707031 L 61.175781 27.707031 Z M 61.175781 24.652344 " fill-opacity="1" fill-rule="nonzero"/><g clip-path="url(#id3)"><path fill="#ff7443" d="M 21.269531 1.046875 L 26.9375 1.046875 L 26.9375 6.703125 L 21.269531 6.703125 Z M 21.269531 1.046875 " fill-opacity="1" fill-rule="nonzero"/></g><path fill="#41464b" d="M 24.101562 4.824219 L 33.820312 4.824219 L 33.820312 5.484375 L 24.101562 5.484375 Z M 24.101562 4.824219 " fill-opacity="1" fill-rule="nonzero"/><path fill="#41464b" d="M 24.101562 3.542969 L 35.21875 3.542969 L 35.21875 4.203125 L 24.101562 4.203125 Z M 24.101562 3.542969 " fill-opacity="1" fill-rule="nonzero"/><path fill="#41464b" d="M 22.484375 2.261719 L 31.457031 2.261719 L 31.457031 2.921875 L 22.484375 2.921875 Z M 22.484375 2.261719 " fill-opacity="1" fill-rule="nonzero"/></svg>