<svg xmlns="http://www.w3.org/2000/svg" xmlns:xlink="http://www.w3.org/1999/xlink" width="90" zoomAndPan="magnify" viewBox="0 0 67.5 67.499996" height="90" preserveAspectRatio="xMidYMid meet" version="1.0"><defs><clipPath id="id1"><path d="M 2.441406 2.425781 L 65.441406 2.425781 L 65.441406 65.425781 L 2.441406 65.425781 Z M 2.441406 2.425781 " clip-rule="nonzero"/></clipPath></defs><path fill="#ffffff" d="M 8.742188 33.925781 C 8.742188 43.898438 14.539062 52.519531 22.945312 56.605469 L 10.921875 23.667969 C 9.527344 26.800781 8.742188 30.269531 8.742188 33.925781 Z M 50.976562 30.773438 C 50.976562 28.414062 49.863281 27.363281 48.878906 25.699219 C 47.632812 23.601562 46.402344 21.867188 46.402344 19.789062 C 46.402344 17.476562 48.160156 15.320312 50.632812 15.320312 C 50.742188 15.320312 50.847656 15.332031 50.960938 15.339844 C 46.472656 11.230469 40.5 8.726562 33.941406 8.726562 C 25.140625 8.726562 17.394531 13.242188 12.886719 20.085938 C 13.480469 20.105469 14.039062 20.117188 14.511719 20.117188 C 17.148438 20.117188 21.226562 19.792969 21.226562 19.792969 C 22.585938 19.714844 22.746094 21.710938 21.386719 21.871094 C 21.386719 21.871094 20.019531 22.03125 18.503906 22.113281 L 26.855469 47.121094 L 32.371094 30.578125 L 29.273438 22.109375 C 27.914062 22.03125 26.625 21.871094 26.625 21.871094 C 25.265625 21.789062 25.425781 19.707031 26.78125 19.789062 C 26.78125 19.789062 30.945312 20.113281 33.421875 20.113281 C 36.058594 20.113281 40.136719 19.789062 40.136719 19.789062 C 41.496094 19.710938 41.652344 21.710938 40.296875 21.871094 C 40.296875 21.871094 38.925781 22.027344 37.414062 22.109375 L 46.542969 47.320312 L 49.058594 38.925781 C 49.886719 35.566406 50.976562 32.9375 50.976562 30.773438 Z M 34.386719 36.128906 L 26.824219 58.097656 C 29.082031 58.761719 31.46875 59.125 33.941406 59.125 C 36.875 59.125 39.691406 58.617188 42.3125 57.699219 C 42.246094 57.585938 42.183594 57.472656 42.128906 57.351562 Z M 56.054688 21.832031 C 56.167969 22.636719 56.183594 23.496094 56.226562 24.425781 C 56.351562 26.988281 55.824219 30.871094 55.222656 32.734375 C 53.304688 38.679688 47.582031 55.035156 47.582031 55.035156 C 47.675781 55 47.886719 54.914062 48.296875 54.632812 C 54.882812 50.125 59.144531 42.503906 59.144531 33.925781 C 59.144531 29.539062 58.023438 25.421875 56.054688 21.832031 Z M 56.054688 21.832031 " fill-opacity="1" fill-rule="nonzero"/><g clip-path="url(#id1)"><path fill="#ffffff" d="M 33.941406 5.574219 C 49.574219 5.574219 62.292969 18.292969 62.292969 33.925781 C 62.292969 49.558594 49.574219 62.273438 33.941406 62.273438 C 18.3125 62.273438 5.59375 49.554688 5.59375 33.925781 C 5.59375 18.292969 18.3125 5.574219 33.941406 5.574219 M 33.941406 2.425781 C 16.574219 2.425781 2.441406 16.550781 2.441406 33.925781 C 2.441406 51.292969 16.574219 65.425781 33.941406 65.425781 C 51.316406 65.425781 65.441406 51.289062 65.441406 33.925781 C 65.441406 16.554688 51.316406 2.425781 33.941406 2.425781 Z M 33.941406 2.425781 " fill-opacity="1" fill-rule="nonzero"/></g></svg>